<mxfile host="app.diagrams.net" agent="Mozilla/5.0 (Windows NT 10.0; Win64; x64) AppleWebKit/537.36 (KHTML, like Gecko) Chrome/140.0.0.0 Safari/537.36" version="28.2.3" pages="9">
  <diagram name="Conceptual Model (Original)" id="SswfyS4V0T0tMm6j7hZ1">
    <mxGraphModel grid="0" page="0" gridSize="10" guides="1" tooltips="1" connect="1" arrows="1" fold="1" pageScale="1" pageWidth="827" pageHeight="1169" math="0" shadow="0">
      <root>
        <mxCell id="sfA238IPMwlKO-HkluRP-0" />
        <mxCell id="sfA238IPMwlKO-HkluRP-1" parent="sfA238IPMwlKO-HkluRP-0" />
        <mxCell id="sfA238IPMwlKO-HkluRP-2" value="" style="group" parent="sfA238IPMwlKO-HkluRP-1" connectable="0" vertex="1">
          <mxGeometry x="332" y="490" width="293" height="237" as="geometry" />
        </mxCell>
        <mxCell id="sfA238IPMwlKO-HkluRP-3" value="" style="rounded=0;whiteSpace=wrap;html=1;fillColor=#fff2cc;strokeColor=#d6b656;" parent="sfA238IPMwlKO-HkluRP-2" vertex="1">
          <mxGeometry y="34" width="293" height="203" as="geometry" />
        </mxCell>
        <mxCell id="sfA238IPMwlKO-HkluRP-4" value="Product Catalog" style="text;html=1;align=center;verticalAlign=middle;resizable=0;points=[];autosize=1;strokeColor=none;fillColor=none;fontSize=16;fontFamily=Times New Roman;fontStyle=1" parent="sfA238IPMwlKO-HkluRP-2" vertex="1">
          <mxGeometry x="89.5" width="122" height="31" as="geometry" />
        </mxCell>
        <mxCell id="sfA238IPMwlKO-HkluRP-5" style="edgeStyle=orthogonalEdgeStyle;rounded=0;orthogonalLoop=1;jettySize=auto;html=1;exitX=0.75;exitY=1;exitDx=0;exitDy=0;entryX=0.75;entryY=0;entryDx=0;entryDy=0;" parent="sfA238IPMwlKO-HkluRP-2" source="sfA238IPMwlKO-HkluRP-8" target="sfA238IPMwlKO-HkluRP-9" edge="1">
          <mxGeometry relative="1" as="geometry">
            <Array as="points">
              <mxPoint x="122" y="112" />
              <mxPoint x="251" y="112" />
            </Array>
          </mxGeometry>
        </mxCell>
        <mxCell id="sfA238IPMwlKO-HkluRP-6" value="1...*" style="edgeLabel;html=1;align=center;verticalAlign=middle;resizable=0;points=[];" parent="sfA238IPMwlKO-HkluRP-5" connectable="0" vertex="1">
          <mxGeometry x="-0.6322" y="1" relative="1" as="geometry">
            <mxPoint as="offset" />
          </mxGeometry>
        </mxCell>
        <mxCell id="sfA238IPMwlKO-HkluRP-7" value="0...*" style="edgeLabel;html=1;align=center;verticalAlign=middle;resizable=0;points=[];" parent="sfA238IPMwlKO-HkluRP-5" connectable="0" vertex="1">
          <mxGeometry x="0.5517" y="2" relative="1" as="geometry">
            <mxPoint as="offset" />
          </mxGeometry>
        </mxCell>
        <mxCell id="sfA238IPMwlKO-HkluRP-8" value="&lt;p style=&quot;margin:0px;margin-top:4px;text-align:center;&quot;&gt;&lt;b&gt;Rating&lt;/b&gt;&lt;/p&gt;&lt;hr size=&quot;1&quot; style=&quot;border-style:solid;&quot;&gt;&lt;div style=&quot;height:2px;&quot;&gt;&lt;/div&gt;" style="verticalAlign=top;align=left;overflow=fill;html=1;whiteSpace=wrap;fillColor=#ffff88;strokeColor=#36393d;" parent="sfA238IPMwlKO-HkluRP-2" vertex="1">
          <mxGeometry x="17" y="57" width="140" height="40" as="geometry" />
        </mxCell>
        <mxCell id="sfA238IPMwlKO-HkluRP-9" value="&lt;p style=&quot;margin:0px;margin-top:4px;text-align:center;&quot;&gt;&lt;b&gt;Product&lt;/b&gt;&lt;/p&gt;&lt;hr size=&quot;1&quot; style=&quot;border-style:solid;&quot;&gt;&lt;div style=&quot;height:2px;&quot;&gt;&lt;/div&gt;" style="verticalAlign=top;align=left;overflow=fill;html=1;whiteSpace=wrap;fillColor=#ffff88;strokeColor=#36393d;" parent="sfA238IPMwlKO-HkluRP-2" vertex="1">
          <mxGeometry x="146" y="132" width="140" height="40" as="geometry" />
        </mxCell>
        <mxCell id="sfA238IPMwlKO-HkluRP-10" style="edgeStyle=orthogonalEdgeStyle;rounded=0;orthogonalLoop=1;jettySize=auto;html=1;exitX=0.5;exitY=0;exitDx=0;exitDy=0;entryX=0.5;entryY=1;entryDx=0;entryDy=0;" parent="sfA238IPMwlKO-HkluRP-2" source="sfA238IPMwlKO-HkluRP-12" target="sfA238IPMwlKO-HkluRP-8" edge="1">
          <mxGeometry relative="1" as="geometry">
            <Array as="points">
              <mxPoint x="87" y="131" />
              <mxPoint x="87" y="131" />
            </Array>
          </mxGeometry>
        </mxCell>
        <mxCell id="sfA238IPMwlKO-HkluRP-11" value="rate" style="edgeLabel;html=1;align=center;verticalAlign=middle;resizable=0;points=[];" parent="sfA238IPMwlKO-HkluRP-10" connectable="0" vertex="1">
          <mxGeometry x="0.2095" relative="1" as="geometry">
            <mxPoint x="1" as="offset" />
          </mxGeometry>
        </mxCell>
        <mxCell id="sfA238IPMwlKO-HkluRP-12" value="&lt;p style=&quot;margin:0px;margin-top:4px;text-align:center;&quot;&gt;&lt;b&gt;Buyer&lt;/b&gt;&lt;/p&gt;&lt;hr size=&quot;1&quot; style=&quot;border-style:solid;&quot;&gt;&lt;div style=&quot;height:2px;&quot;&gt;&lt;/div&gt;" style="verticalAlign=top;align=left;overflow=fill;html=1;whiteSpace=wrap;fillColor=#ffff88;strokeColor=#36393d;" parent="sfA238IPMwlKO-HkluRP-2" vertex="1">
          <mxGeometry x="17" y="181" width="140" height="40" as="geometry" />
        </mxCell>
        <mxCell id="sfA238IPMwlKO-HkluRP-13" value="" style="group" parent="sfA238IPMwlKO-HkluRP-1" connectable="0" vertex="1">
          <mxGeometry x="-162" y="556" width="376" height="263" as="geometry" />
        </mxCell>
        <mxCell id="sfA238IPMwlKO-HkluRP-14" value="" style="rounded=0;whiteSpace=wrap;html=1;fillColor=#f5f5f5;strokeColor=#666666;fontColor=#333333;" parent="sfA238IPMwlKO-HkluRP-13" vertex="1">
          <mxGeometry x="-15.67" y="27" width="391.67" height="236" as="geometry" />
        </mxCell>
        <mxCell id="sfA238IPMwlKO-HkluRP-15" value="Payment Process&lt;span style=&quot;color: rgba(0, 0, 0, 0); font-family: monospace; font-size: 0px; font-weight: 400; text-align: start;&quot;&gt;%3CmxGraphModel%3E%3Croot%3E%3CmxCell%20id%3D%220%22%2F%3E%3CmxCell%20id%3D%221%22%20parent%3D%220%22%2F%3E%3CmxCell%20id%3D%222%22%20value%3D%22Product%20Catalog%22%20style%3D%22text%3Bhtml%3D1%3Balign%3Dcenter%3BverticalAlign%3Dmiddle%3Bresizable%3D0%3Bpoints%3D%5B%5D%3Bautosize%3D1%3BstrokeColor%3Dnone%3BfillColor%3Dnone%3BfontSize%3D16%3BfontFamily%3DTimes%20New%20Roman%3BfontStyle%3D1%22%20vertex%3D%221%22%20parent%3D%221%22%3E%3CmxGeometry%20x%3D%22-34.5%22%20y%3D%22-31%22%20width%3D%22122%22%20height%3D%2231%22%20as%3D%22geometry%22%2F%3E%3C%2FmxCell%3E%3C%2Froot%3E%3C%2FmxGraphModel%3E&lt;/span&gt;" style="text;html=1;align=center;verticalAlign=middle;resizable=0;points=[];autosize=1;strokeColor=none;fillColor=none;fontSize=16;fontFamily=Times New Roman;fontStyle=1" parent="sfA238IPMwlKO-HkluRP-13" vertex="1">
          <mxGeometry x="105.49291695108077" y="-3.999999999999999" width="127" height="31" as="geometry" />
        </mxCell>
        <mxCell id="sfA238IPMwlKO-HkluRP-16" style="edgeStyle=orthogonalEdgeStyle;rounded=0;orthogonalLoop=1;jettySize=auto;html=1;exitX=0.5;exitY=1;exitDx=0;exitDy=0;entryX=1;entryY=0.5;entryDx=0;entryDy=0;" parent="sfA238IPMwlKO-HkluRP-13" source="sfA238IPMwlKO-HkluRP-18" target="sfA238IPMwlKO-HkluRP-25" edge="1">
          <mxGeometry relative="1" as="geometry" />
        </mxCell>
        <mxCell id="sfA238IPMwlKO-HkluRP-17" value="0...*" style="edgeLabel;html=1;align=center;verticalAlign=middle;resizable=0;points=[];" parent="sfA238IPMwlKO-HkluRP-16" connectable="0" vertex="1">
          <mxGeometry x="-0.2081" y="-2" relative="1" as="geometry">
            <mxPoint as="offset" />
          </mxGeometry>
        </mxCell>
        <mxCell id="sfA238IPMwlKO-HkluRP-18" value="&lt;p style=&quot;margin:0px;margin-top:4px;text-align:center;&quot;&gt;&lt;b&gt;Buyer&lt;/b&gt;&lt;/p&gt;&lt;hr size=&quot;1&quot; style=&quot;border-style:solid;&quot;&gt;&lt;div style=&quot;height:2px;&quot;&gt;&lt;/div&gt;" style="verticalAlign=top;align=left;overflow=fill;html=1;whiteSpace=wrap;fillColor=#ffff88;strokeColor=#36393d;" parent="sfA238IPMwlKO-HkluRP-13" vertex="1">
          <mxGeometry x="214.10666666666668" y="47.00338983050847" width="146.22222222222223" height="44.57627118644068" as="geometry" />
        </mxCell>
        <mxCell id="sfA238IPMwlKO-HkluRP-19" style="edgeStyle=orthogonalEdgeStyle;rounded=0;orthogonalLoop=1;jettySize=auto;html=1;exitX=0.75;exitY=1;exitDx=0;exitDy=0;entryX=0.25;entryY=0;entryDx=0;entryDy=0;" parent="sfA238IPMwlKO-HkluRP-13" source="sfA238IPMwlKO-HkluRP-25" target="sfA238IPMwlKO-HkluRP-28" edge="1">
          <mxGeometry relative="1" as="geometry" />
        </mxCell>
        <mxCell id="sfA238IPMwlKO-HkluRP-20" value="1...1" style="edgeLabel;html=1;align=center;verticalAlign=middle;resizable=0;points=[];" parent="sfA238IPMwlKO-HkluRP-19" connectable="0" vertex="1">
          <mxGeometry x="-0.1073" y="-1" relative="1" as="geometry">
            <mxPoint as="offset" />
          </mxGeometry>
        </mxCell>
        <mxCell id="sfA238IPMwlKO-HkluRP-21" style="edgeStyle=orthogonalEdgeStyle;rounded=0;orthogonalLoop=1;jettySize=auto;html=1;exitX=0;exitY=0.5;exitDx=0;exitDy=0;" parent="sfA238IPMwlKO-HkluRP-13" source="sfA238IPMwlKO-HkluRP-25" target="sfA238IPMwlKO-HkluRP-27" edge="1">
          <mxGeometry relative="1" as="geometry" />
        </mxCell>
        <mxCell id="sfA238IPMwlKO-HkluRP-22" value="1...1" style="edgeLabel;html=1;align=center;verticalAlign=middle;resizable=0;points=[];" parent="sfA238IPMwlKO-HkluRP-21" connectable="0" vertex="1">
          <mxGeometry x="0.4655" y="2" relative="1" as="geometry">
            <mxPoint as="offset" />
          </mxGeometry>
        </mxCell>
        <mxCell id="sfA238IPMwlKO-HkluRP-23" style="edgeStyle=orthogonalEdgeStyle;rounded=0;orthogonalLoop=1;jettySize=auto;html=1;exitX=0.25;exitY=0;exitDx=0;exitDy=0;entryX=0.5;entryY=1;entryDx=0;entryDy=0;" parent="sfA238IPMwlKO-HkluRP-13" source="sfA238IPMwlKO-HkluRP-25" target="sfA238IPMwlKO-HkluRP-26" edge="1">
          <mxGeometry relative="1" as="geometry" />
        </mxCell>
        <mxCell id="sfA238IPMwlKO-HkluRP-24" value="1...1" style="edgeLabel;html=1;align=center;verticalAlign=middle;resizable=0;points=[];" parent="sfA238IPMwlKO-HkluRP-23" connectable="0" vertex="1">
          <mxGeometry x="0.0545" y="-1" relative="1" as="geometry">
            <mxPoint as="offset" />
          </mxGeometry>
        </mxCell>
        <mxCell id="sfA238IPMwlKO-HkluRP-25" value="&lt;p style=&quot;margin:0px;margin-top:4px;text-align:center;&quot;&gt;&lt;b&gt;Payment&lt;/b&gt;&lt;/p&gt;&lt;hr size=&quot;1&quot; style=&quot;border-style:solid;&quot;&gt;&lt;div style=&quot;height:2px;&quot;&gt;&lt;/div&gt;" style="verticalAlign=top;align=left;overflow=fill;html=1;whiteSpace=wrap;fillColor=#ffff88;strokeColor=#36393d;" parent="sfA238IPMwlKO-HkluRP-13" vertex="1">
          <mxGeometry x="95.87777777777778" y="118" width="146.22222222222223" height="47" as="geometry" />
        </mxCell>
        <mxCell id="sfA238IPMwlKO-HkluRP-26" value="&lt;p style=&quot;margin:0px;margin-top:4px;text-align:center;&quot;&gt;&lt;b&gt;PaymentMethod&lt;/b&gt;&lt;/p&gt;&lt;hr size=&quot;1&quot; style=&quot;border-style:solid;&quot;&gt;&lt;div style=&quot;height:2px;&quot;&gt;&lt;/div&gt;" style="verticalAlign=top;align=left;overflow=fill;html=1;whiteSpace=wrap;fillColor=#ffff88;strokeColor=#36393d;" parent="sfA238IPMwlKO-HkluRP-13" vertex="1">
          <mxGeometry x="0.004444444444443363" y="36.78" width="146.22222222222223" height="40" as="geometry" />
        </mxCell>
        <mxCell id="sfA238IPMwlKO-HkluRP-27" value="&lt;p style=&quot;margin:0px;margin-top:4px;text-align:center;&quot;&gt;&lt;b&gt;PaymentStatus&lt;/b&gt;&lt;/p&gt;&lt;hr size=&quot;1&quot; style=&quot;border-style:solid;&quot;&gt;&lt;div style=&quot;height:2px;&quot;&gt;&lt;/div&gt;" style="verticalAlign=top;align=left;overflow=fill;html=1;whiteSpace=wrap;fillColor=#ffff88;strokeColor=#36393d;" parent="sfA238IPMwlKO-HkluRP-13" vertex="1">
          <mxGeometry x="-4" y="215" width="146.22222222222223" height="40" as="geometry" />
        </mxCell>
        <mxCell id="sfA238IPMwlKO-HkluRP-28" value="&lt;p style=&quot;margin:0px;margin-top:4px;text-align:center;&quot;&gt;&lt;b&gt;Cart Info&lt;/b&gt;&lt;/p&gt;&lt;hr size=&quot;1&quot; style=&quot;border-style:solid;&quot;&gt;&lt;div style=&quot;height:2px;&quot;&gt;&lt;/div&gt;" style="verticalAlign=top;align=left;overflow=fill;html=1;whiteSpace=wrap;fillColor=#ffff88;strokeColor=#36393d;" parent="sfA238IPMwlKO-HkluRP-13" vertex="1">
          <mxGeometry x="216.0011111111111" y="212" width="146.22222222222223" height="40" as="geometry" />
        </mxCell>
        <mxCell id="sfA238IPMwlKO-HkluRP-29" value="" style="group" parent="sfA238IPMwlKO-HkluRP-1" connectable="0" vertex="1">
          <mxGeometry x="308" y="305" width="305" height="152" as="geometry" />
        </mxCell>
        <mxCell id="sfA238IPMwlKO-HkluRP-30" value="" style="group" parent="sfA238IPMwlKO-HkluRP-29" connectable="0" vertex="1">
          <mxGeometry width="305" height="121" as="geometry" />
        </mxCell>
        <mxCell id="sfA238IPMwlKO-HkluRP-31" value="" style="rounded=0;whiteSpace=wrap;html=1;fillColor=#f8cecc;strokeColor=#b85450;" parent="sfA238IPMwlKO-HkluRP-30" vertex="1">
          <mxGeometry y="36" width="305" height="85" as="geometry" />
        </mxCell>
        <mxCell id="sfA238IPMwlKO-HkluRP-32" style="edgeStyle=orthogonalEdgeStyle;rounded=0;orthogonalLoop=1;jettySize=auto;html=1;exitX=1;exitY=0.5;exitDx=0;exitDy=0;" parent="sfA238IPMwlKO-HkluRP-30" source="sfA238IPMwlKO-HkluRP-34" target="sfA238IPMwlKO-HkluRP-35" edge="1">
          <mxGeometry relative="1" as="geometry" />
        </mxCell>
        <mxCell id="sfA238IPMwlKO-HkluRP-33" value="1...*" style="edgeLabel;html=1;align=center;verticalAlign=middle;resizable=0;points=[];" parent="sfA238IPMwlKO-HkluRP-32" connectable="0" vertex="1">
          <mxGeometry x="0.2836" y="-1" relative="1" as="geometry">
            <mxPoint as="offset" />
          </mxGeometry>
        </mxCell>
        <mxCell id="sfA238IPMwlKO-HkluRP-34" value="&lt;p style=&quot;margin:0px;margin-top:4px;text-align:center;&quot;&gt;&lt;b&gt;User&lt;/b&gt;&lt;/p&gt;&lt;hr size=&quot;1&quot; style=&quot;border-style:solid;&quot;&gt;&lt;div style=&quot;height:2px;&quot;&gt;&lt;/div&gt;" style="verticalAlign=top;align=left;overflow=fill;html=1;whiteSpace=wrap;fillColor=#ffff88;strokeColor=#36393d;" parent="sfA238IPMwlKO-HkluRP-30" vertex="1">
          <mxGeometry y="58.5" width="140" height="40" as="geometry" />
        </mxCell>
        <mxCell id="sfA238IPMwlKO-HkluRP-35" value="&lt;p style=&quot;margin:0px;margin-top:4px;text-align:center;&quot;&gt;&lt;b&gt;Role&lt;/b&gt;&lt;/p&gt;&lt;hr size=&quot;1&quot; style=&quot;border-style:solid;&quot;&gt;&lt;div style=&quot;height:2px;&quot;&gt;&lt;/div&gt;" style="verticalAlign=top;align=left;overflow=fill;html=1;whiteSpace=wrap;fillColor=#ffff88;strokeColor=#36393d;" parent="sfA238IPMwlKO-HkluRP-30" vertex="1">
          <mxGeometry x="173" y="57.5" width="140" height="41" as="geometry" />
        </mxCell>
        <mxCell id="sfA238IPMwlKO-HkluRP-36" value="Acess Control" style="text;html=1;align=center;verticalAlign=middle;resizable=0;points=[];autosize=1;strokeColor=none;fillColor=none;fontSize=16;fontFamily=Times New Roman;fontStyle=1" parent="sfA238IPMwlKO-HkluRP-29" vertex="1">
          <mxGeometry x="98" y="121" width="109" height="31" as="geometry" />
        </mxCell>
        <mxCell id="sfA238IPMwlKO-HkluRP-37" value="" style="group" parent="sfA238IPMwlKO-HkluRP-1" connectable="0" vertex="1">
          <mxGeometry x="-115" y="267" width="218" height="209" as="geometry" />
        </mxCell>
        <mxCell id="sfA238IPMwlKO-HkluRP-38" value="" style="rounded=0;whiteSpace=wrap;html=1;fillColor=#e1d5e7;strokeColor=#9673a6;" parent="sfA238IPMwlKO-HkluRP-37" vertex="1">
          <mxGeometry y="37" width="218" height="172" as="geometry" />
        </mxCell>
        <mxCell id="sfA238IPMwlKO-HkluRP-39" value="Inventory" style="text;html=1;align=center;verticalAlign=middle;resizable=0;points=[];autosize=1;strokeColor=none;fillColor=none;fontSize=16;fontFamily=Times New Roman;fontStyle=1" parent="sfA238IPMwlKO-HkluRP-37" vertex="1">
          <mxGeometry x="69" width="80" height="31" as="geometry" />
        </mxCell>
        <mxCell id="sfA238IPMwlKO-HkluRP-40" value="" style="group" parent="sfA238IPMwlKO-HkluRP-1" connectable="0" vertex="1">
          <mxGeometry x="329" y="-16" width="320" height="237" as="geometry" />
        </mxCell>
        <mxCell id="sfA238IPMwlKO-HkluRP-41" value="" style="rounded=0;whiteSpace=wrap;html=1;fillColor=#dae8fc;strokeColor=#6c8ebf;" parent="sfA238IPMwlKO-HkluRP-40" vertex="1">
          <mxGeometry y="34" width="320" height="203" as="geometry" />
        </mxCell>
        <mxCell id="sfA238IPMwlKO-HkluRP-42" value="Shopping Cart" style="text;html=1;align=center;verticalAlign=middle;resizable=0;points=[];autosize=1;strokeColor=none;fillColor=none;fontSize=16;fontFamily=Times New Roman;fontStyle=1" parent="sfA238IPMwlKO-HkluRP-40" vertex="1">
          <mxGeometry x="110.85324232081912" width="111" height="31" as="geometry" />
        </mxCell>
        <mxCell id="sfA238IPMwlKO-HkluRP-43" value="&lt;p style=&quot;margin:0px;margin-top:4px;text-align:center;&quot;&gt;&lt;b&gt;Cart&lt;/b&gt;&lt;/p&gt;&lt;hr size=&quot;1&quot; style=&quot;border-style:solid;&quot;&gt;&lt;div style=&quot;height:2px;&quot;&gt;&lt;/div&gt;" style="verticalAlign=top;align=left;overflow=fill;html=1;whiteSpace=wrap;fillColor=#ffff88;strokeColor=#36393d;" parent="sfA238IPMwlKO-HkluRP-40" vertex="1">
          <mxGeometry x="173" y="90" width="140" height="40" as="geometry" />
        </mxCell>
        <mxCell id="sfA238IPMwlKO-HkluRP-44" style="edgeStyle=orthogonalEdgeStyle;rounded=0;orthogonalLoop=1;jettySize=auto;html=1;exitX=1;exitY=0.5;exitDx=0;exitDy=0;entryX=0.5;entryY=0;entryDx=0;entryDy=0;" parent="sfA238IPMwlKO-HkluRP-40" source="sfA238IPMwlKO-HkluRP-47" target="sfA238IPMwlKO-HkluRP-43" edge="1">
          <mxGeometry relative="1" as="geometry" />
        </mxCell>
        <mxCell id="sfA238IPMwlKO-HkluRP-45" value="1...*" style="edgeLabel;html=1;align=center;verticalAlign=middle;resizable=0;points=[];" parent="sfA238IPMwlKO-HkluRP-44" connectable="0" vertex="1">
          <mxGeometry x="-0.7679" relative="1" as="geometry">
            <mxPoint as="offset" />
          </mxGeometry>
        </mxCell>
        <mxCell id="sfA238IPMwlKO-HkluRP-46" value="0...*" style="edgeLabel;html=1;align=center;verticalAlign=middle;resizable=0;points=[];" parent="sfA238IPMwlKO-HkluRP-44" connectable="0" vertex="1">
          <mxGeometry x="0.7893" y="-2" relative="1" as="geometry">
            <mxPoint x="6" y="-9" as="offset" />
          </mxGeometry>
        </mxCell>
        <mxCell id="sfA238IPMwlKO-HkluRP-47" value="&lt;p style=&quot;margin:0px;margin-top:4px;text-align:center;&quot;&gt;&lt;b&gt;Product&lt;/b&gt;&lt;/p&gt;&lt;hr size=&quot;1&quot; style=&quot;border-style:solid;&quot;&gt;&lt;div style=&quot;height:2px;&quot;&gt;&lt;/div&gt;" style="verticalAlign=top;align=left;overflow=fill;html=1;whiteSpace=wrap;fillColor=#ffff88;strokeColor=#36393d;" parent="sfA238IPMwlKO-HkluRP-40" vertex="1">
          <mxGeometry x="15" y="46" width="140" height="40" as="geometry" />
        </mxCell>
        <mxCell id="sfA238IPMwlKO-HkluRP-48" style="edgeStyle=orthogonalEdgeStyle;rounded=0;orthogonalLoop=1;jettySize=auto;html=1;exitX=0.25;exitY=0;exitDx=0;exitDy=0;entryX=0.25;entryY=1;entryDx=0;entryDy=0;" parent="sfA238IPMwlKO-HkluRP-40" source="sfA238IPMwlKO-HkluRP-52" target="sfA238IPMwlKO-HkluRP-43" edge="1">
          <mxGeometry relative="1" as="geometry" />
        </mxCell>
        <mxCell id="sfA238IPMwlKO-HkluRP-49" value="enable/disable" style="edgeLabel;html=1;align=center;verticalAlign=middle;resizable=0;points=[];" parent="sfA238IPMwlKO-HkluRP-48" connectable="0" vertex="1">
          <mxGeometry x="-0.4378" y="1" relative="1" as="geometry">
            <mxPoint x="9" y="2" as="offset" />
          </mxGeometry>
        </mxCell>
        <mxCell id="sfA238IPMwlKO-HkluRP-50" style="edgeStyle=orthogonalEdgeStyle;rounded=0;orthogonalLoop=1;jettySize=auto;html=1;exitX=1;exitY=0.5;exitDx=0;exitDy=0;entryX=0.75;entryY=1;entryDx=0;entryDy=0;" parent="sfA238IPMwlKO-HkluRP-40" source="sfA238IPMwlKO-HkluRP-52" target="sfA238IPMwlKO-HkluRP-43" edge="1">
          <mxGeometry relative="1" as="geometry" />
        </mxCell>
        <mxCell id="sfA238IPMwlKO-HkluRP-51" value="see all carts" style="edgeLabel;html=1;align=center;verticalAlign=middle;resizable=0;points=[];" parent="sfA238IPMwlKO-HkluRP-50" connectable="0" vertex="1">
          <mxGeometry x="0.3798" relative="1" as="geometry">
            <mxPoint as="offset" />
          </mxGeometry>
        </mxCell>
        <mxCell id="sfA238IPMwlKO-HkluRP-52" value="&lt;p style=&quot;margin:0px;margin-top:4px;text-align:center;&quot;&gt;&lt;b&gt;SysAdmin&lt;/b&gt;&lt;/p&gt;&lt;hr size=&quot;1&quot; style=&quot;border-style:solid;&quot;&gt;&lt;div style=&quot;height:2px;&quot;&gt;&lt;/div&gt;" style="verticalAlign=top;align=left;overflow=fill;html=1;whiteSpace=wrap;fillColor=#ffff88;strokeColor=#36393d;" parent="sfA238IPMwlKO-HkluRP-40" vertex="1">
          <mxGeometry x="153" y="184" width="140" height="40" as="geometry" />
        </mxCell>
        <mxCell id="sfA238IPMwlKO-HkluRP-53" style="edgeStyle=orthogonalEdgeStyle;rounded=0;orthogonalLoop=1;jettySize=auto;html=1;exitX=0.75;exitY=0;exitDx=0;exitDy=0;" parent="sfA238IPMwlKO-HkluRP-40" source="sfA238IPMwlKO-HkluRP-55" target="sfA238IPMwlKO-HkluRP-43" edge="1">
          <mxGeometry relative="1" as="geometry" />
        </mxCell>
        <mxCell id="sfA238IPMwlKO-HkluRP-54" value="actions" style="edgeLabel;html=1;align=center;verticalAlign=middle;resizable=0;points=[];" parent="sfA238IPMwlKO-HkluRP-53" connectable="0" vertex="1">
          <mxGeometry x="-0.0933" y="-2" relative="1" as="geometry">
            <mxPoint as="offset" />
          </mxGeometry>
        </mxCell>
        <mxCell id="sfA238IPMwlKO-HkluRP-55" value="&lt;p style=&quot;margin:0px;margin-top:4px;text-align:center;&quot;&gt;&lt;b&gt;Buyer&lt;/b&gt;&lt;/p&gt;&lt;hr size=&quot;1&quot; style=&quot;border-style:solid;&quot;&gt;&lt;div style=&quot;height:2px;&quot;&gt;&lt;/div&gt;" style="verticalAlign=top;align=left;overflow=fill;html=1;whiteSpace=wrap;fillColor=#ffff88;strokeColor=#36393d;" parent="sfA238IPMwlKO-HkluRP-40" vertex="1">
          <mxGeometry x="13" y="130" width="140" height="40" as="geometry" />
        </mxCell>
        <mxCell id="sfA238IPMwlKO-HkluRP-56" value="" style="group" parent="sfA238IPMwlKO-HkluRP-1" connectable="0" vertex="1">
          <mxGeometry x="-124" y="-31" width="325" height="234" as="geometry" />
        </mxCell>
        <mxCell id="sfA238IPMwlKO-HkluRP-57" value="" style="rounded=0;whiteSpace=wrap;html=1;fillColor=#d5e8d4;strokeColor=#82b366;" parent="sfA238IPMwlKO-HkluRP-56" vertex="1">
          <mxGeometry y="31" width="325" height="203" as="geometry" />
        </mxCell>
        <mxCell id="sfA238IPMwlKO-HkluRP-58" value="Product Catalog" style="text;html=1;align=center;verticalAlign=middle;resizable=0;points=[];autosize=1;strokeColor=none;fillColor=none;fontSize=16;fontFamily=Times New Roman;fontStyle=1" parent="sfA238IPMwlKO-HkluRP-56" vertex="1">
          <mxGeometry x="101.5" width="122" height="31" as="geometry" />
        </mxCell>
        <mxCell id="sfA238IPMwlKO-HkluRP-59" style="edgeStyle=orthogonalEdgeStyle;rounded=0;orthogonalLoop=1;jettySize=auto;html=1;exitX=0.5;exitY=1;exitDx=0;exitDy=0;entryX=0.5;entryY=0;entryDx=0;entryDy=0;" parent="sfA238IPMwlKO-HkluRP-56" source="sfA238IPMwlKO-HkluRP-61" target="sfA238IPMwlKO-HkluRP-62" edge="1">
          <mxGeometry relative="1" as="geometry" />
        </mxCell>
        <mxCell id="sfA238IPMwlKO-HkluRP-60" value="+ CRUD&lt;div&gt;+ Assign Inventory&lt;/div&gt;" style="edgeLabel;html=1;align=left;verticalAlign=middle;resizable=0;points=[];" parent="sfA238IPMwlKO-HkluRP-59" connectable="0" vertex="1">
          <mxGeometry x="-0.2516" y="-1" relative="1" as="geometry">
            <mxPoint x="-30" y="4" as="offset" />
          </mxGeometry>
        </mxCell>
        <mxCell id="sfA238IPMwlKO-HkluRP-61" value="&lt;p style=&quot;margin:0px;margin-top:4px;text-align:center;&quot;&gt;&lt;b&gt;Product&lt;/b&gt;&lt;/p&gt;&lt;hr size=&quot;1&quot; style=&quot;border-style:solid;&quot;&gt;&lt;div style=&quot;height:2px;&quot;&gt;&lt;/div&gt;" style="verticalAlign=top;align=left;overflow=fill;html=1;whiteSpace=wrap;fillColor=#ffff88;strokeColor=#36393d;" parent="sfA238IPMwlKO-HkluRP-56" vertex="1">
          <mxGeometry x="176" y="86" width="140" height="40" as="geometry" />
        </mxCell>
        <mxCell id="sfA238IPMwlKO-HkluRP-62" value="&lt;p style=&quot;margin:0px;margin-top:4px;text-align:center;&quot;&gt;&lt;b&gt;SysAdmin&lt;/b&gt;&lt;/p&gt;&lt;hr size=&quot;1&quot; style=&quot;border-style:solid;&quot;&gt;&lt;div style=&quot;height:2px;&quot;&gt;&lt;/div&gt;" style="verticalAlign=top;align=left;overflow=fill;html=1;whiteSpace=wrap;fillColor=#ffff88;strokeColor=#36393d;" parent="sfA238IPMwlKO-HkluRP-56" vertex="1">
          <mxGeometry x="176" y="188" width="140" height="40" as="geometry" />
        </mxCell>
        <mxCell id="sfA238IPMwlKO-HkluRP-63" style="edgeStyle=orthogonalEdgeStyle;rounded=0;orthogonalLoop=1;jettySize=auto;html=1;exitX=0.5;exitY=1;exitDx=0;exitDy=0;entryX=0.5;entryY=0;entryDx=0;entryDy=0;" parent="sfA238IPMwlKO-HkluRP-1" source="sfA238IPMwlKO-HkluRP-67" target="sfA238IPMwlKO-HkluRP-68" edge="1">
          <mxGeometry relative="1" as="geometry" />
        </mxCell>
        <mxCell id="sfA238IPMwlKO-HkluRP-64" value="CRUD" style="edgeLabel;html=1;align=center;verticalAlign=middle;resizable=0;points=[];" parent="sfA238IPMwlKO-HkluRP-63" connectable="0" vertex="1">
          <mxGeometry x="-0.0171" relative="1" as="geometry">
            <mxPoint as="offset" />
          </mxGeometry>
        </mxCell>
        <mxCell id="sfA238IPMwlKO-HkluRP-65" style="edgeStyle=orthogonalEdgeStyle;rounded=0;orthogonalLoop=1;jettySize=auto;html=1;exitX=1;exitY=0.5;exitDx=0;exitDy=0;entryX=0;entryY=0.5;entryDx=0;entryDy=0;" parent="sfA238IPMwlKO-HkluRP-1" source="sfA238IPMwlKO-HkluRP-67" target="sfA238IPMwlKO-HkluRP-34" edge="1">
          <mxGeometry relative="1" as="geometry" />
        </mxCell>
        <mxCell id="sfA238IPMwlKO-HkluRP-66" value="is a" style="edgeLabel;html=1;align=center;verticalAlign=middle;resizable=0;points=[];" parent="sfA238IPMwlKO-HkluRP-65" connectable="0" vertex="1">
          <mxGeometry x="-0.0148" relative="1" as="geometry">
            <mxPoint as="offset" />
          </mxGeometry>
        </mxCell>
        <mxCell id="sfA238IPMwlKO-HkluRP-67" value="&lt;p style=&quot;margin:0px;margin-top:4px;text-align:center;&quot;&gt;&lt;b&gt;SysAdmin&lt;/b&gt;&lt;/p&gt;&lt;hr size=&quot;1&quot; style=&quot;border-style:solid;&quot;&gt;&lt;div style=&quot;height:2px;&quot;&gt;&lt;/div&gt;" style="verticalAlign=top;align=left;overflow=fill;html=1;whiteSpace=wrap;fillColor=#ffff88;strokeColor=#36393d;" parent="sfA238IPMwlKO-HkluRP-1" vertex="1">
          <mxGeometry x="-76" y="331" width="140" height="40" as="geometry" />
        </mxCell>
        <mxCell id="sfA238IPMwlKO-HkluRP-68" value="&lt;p style=&quot;margin:0px;margin-top:4px;text-align:center;&quot;&gt;&lt;b&gt;Inventory&lt;/b&gt;&lt;/p&gt;&lt;hr size=&quot;1&quot; style=&quot;border-style:solid;&quot;&gt;&lt;div style=&quot;height:2px;&quot;&gt;&lt;/div&gt;" style="verticalAlign=top;align=left;overflow=fill;html=1;whiteSpace=wrap;fillColor=#ffff88;strokeColor=#36393d;" parent="sfA238IPMwlKO-HkluRP-1" vertex="1">
          <mxGeometry x="-76" y="406" width="140" height="40" as="geometry" />
        </mxCell>
        <mxCell id="sfA238IPMwlKO-HkluRP-69" style="edgeStyle=orthogonalEdgeStyle;rounded=0;orthogonalLoop=1;jettySize=auto;html=1;exitX=1;exitY=0.5;exitDx=0;exitDy=0;entryX=0.5;entryY=0;entryDx=0;entryDy=0;" parent="sfA238IPMwlKO-HkluRP-1" source="sfA238IPMwlKO-HkluRP-71" target="sfA238IPMwlKO-HkluRP-61" edge="1">
          <mxGeometry relative="1" as="geometry" />
        </mxCell>
        <mxCell id="sfA238IPMwlKO-HkluRP-70" value="is a" style="edgeLabel;html=1;align=center;verticalAlign=middle;resizable=0;points=[];" parent="sfA238IPMwlKO-HkluRP-69" connectable="0" vertex="1">
          <mxGeometry x="-0.3673" relative="1" as="geometry">
            <mxPoint as="offset" />
          </mxGeometry>
        </mxCell>
        <mxCell id="sfA238IPMwlKO-HkluRP-71" value="&lt;p style=&quot;margin:0px;margin-top:4px;text-align:center;&quot;&gt;&lt;b&gt;Hot Product&lt;/b&gt;&lt;/p&gt;&lt;hr size=&quot;1&quot; style=&quot;border-style:solid;&quot;&gt;&lt;div style=&quot;height:2px;&quot;&gt;&lt;/div&gt;" style="verticalAlign=top;align=left;overflow=fill;html=1;whiteSpace=wrap;fillColor=#ffff88;strokeColor=#36393d;" parent="sfA238IPMwlKO-HkluRP-1" vertex="1">
          <mxGeometry x="-103" y="15" width="140" height="40" as="geometry" />
        </mxCell>
        <mxCell id="sfA238IPMwlKO-HkluRP-72" style="edgeStyle=orthogonalEdgeStyle;rounded=0;orthogonalLoop=1;jettySize=auto;html=1;exitX=1;exitY=0.5;exitDx=0;exitDy=0;" parent="sfA238IPMwlKO-HkluRP-1" source="sfA238IPMwlKO-HkluRP-76" target="sfA238IPMwlKO-HkluRP-61" edge="1">
          <mxGeometry relative="1" as="geometry" />
        </mxCell>
        <mxCell id="sfA238IPMwlKO-HkluRP-73" value="1...*" style="edgeLabel;html=1;align=center;verticalAlign=middle;resizable=0;points=[];" parent="sfA238IPMwlKO-HkluRP-72" connectable="0" vertex="1">
          <mxGeometry x="0.3724" y="1" relative="1" as="geometry">
            <mxPoint as="offset" />
          </mxGeometry>
        </mxCell>
        <mxCell id="sfA238IPMwlKO-HkluRP-74" style="edgeStyle=orthogonalEdgeStyle;rounded=0;orthogonalLoop=1;jettySize=auto;html=1;exitX=0;exitY=0.5;exitDx=0;exitDy=0;entryX=0;entryY=0.5;entryDx=0;entryDy=0;" parent="sfA238IPMwlKO-HkluRP-1" source="sfA238IPMwlKO-HkluRP-76" target="sfA238IPMwlKO-HkluRP-68" edge="1">
          <mxGeometry relative="1" as="geometry" />
        </mxCell>
        <mxCell id="sfA238IPMwlKO-HkluRP-75" value="is a" style="edgeLabel;html=1;align=center;verticalAlign=middle;resizable=0;points=[];" parent="sfA238IPMwlKO-HkluRP-74" connectable="0" vertex="1">
          <mxGeometry x="-0.0974" y="-2" relative="1" as="geometry">
            <mxPoint as="offset" />
          </mxGeometry>
        </mxCell>
        <mxCell id="sfA238IPMwlKO-HkluRP-76" value="&lt;p style=&quot;margin:0px;margin-top:4px;text-align:center;&quot;&gt;&lt;b&gt;Inventory Info&lt;/b&gt;&lt;/p&gt;&lt;hr size=&quot;1&quot; style=&quot;border-style:solid;&quot;&gt;&lt;div style=&quot;height:2px;&quot;&gt;&lt;/div&gt;" style="verticalAlign=top;align=left;overflow=fill;html=1;whiteSpace=wrap;fillColor=#ffff88;strokeColor=#36393d;" parent="sfA238IPMwlKO-HkluRP-1" vertex="1">
          <mxGeometry x="-124" y="77" width="140" height="40" as="geometry" />
        </mxCell>
        <mxCell id="sfA238IPMwlKO-HkluRP-77" style="edgeStyle=orthogonalEdgeStyle;rounded=0;orthogonalLoop=1;jettySize=auto;html=1;exitX=0.5;exitY=1;exitDx=0;exitDy=0;entryX=0.389;entryY=-0.002;entryDx=0;entryDy=0;entryPerimeter=0;" parent="sfA238IPMwlKO-HkluRP-1" source="sfA238IPMwlKO-HkluRP-79" target="sfA238IPMwlKO-HkluRP-34" edge="1">
          <mxGeometry relative="1" as="geometry" />
        </mxCell>
        <mxCell id="sfA238IPMwlKO-HkluRP-78" value="is a" style="edgeLabel;html=1;align=center;verticalAlign=middle;resizable=0;points=[];" parent="sfA238IPMwlKO-HkluRP-77" connectable="0" vertex="1">
          <mxGeometry x="0.041" y="3" relative="1" as="geometry">
            <mxPoint as="offset" />
          </mxGeometry>
        </mxCell>
        <mxCell id="sfA238IPMwlKO-HkluRP-79" value="&lt;p style=&quot;margin:0px;margin-top:4px;text-align:center;&quot;&gt;&lt;b&gt;Buyer&lt;/b&gt;&lt;/p&gt;&lt;hr size=&quot;1&quot; style=&quot;border-style:solid;&quot;&gt;&lt;div style=&quot;height:2px;&quot;&gt;&lt;/div&gt;" style="verticalAlign=top;align=left;overflow=fill;html=1;whiteSpace=wrap;fillColor=#ffff88;strokeColor=#36393d;" parent="sfA238IPMwlKO-HkluRP-1" vertex="1">
          <mxGeometry x="-124" y="142" width="140" height="40" as="geometry" />
        </mxCell>
        <mxCell id="sfA238IPMwlKO-HkluRP-80" style="edgeStyle=orthogonalEdgeStyle;rounded=0;orthogonalLoop=1;jettySize=auto;html=1;exitX=1;exitY=0.5;exitDx=0;exitDy=0;entryX=1;entryY=0.5;entryDx=0;entryDy=0;" parent="sfA238IPMwlKO-HkluRP-1" source="sfA238IPMwlKO-HkluRP-28" target="sfA238IPMwlKO-HkluRP-43" edge="1">
          <mxGeometry relative="1" as="geometry" />
        </mxCell>
        <mxCell id="sfA238IPMwlKO-HkluRP-81" value="is a" style="edgeLabel;html=1;align=center;verticalAlign=middle;resizable=0;points=[];" parent="sfA238IPMwlKO-HkluRP-80" connectable="0" vertex="1">
          <mxGeometry x="0.601" y="-4" relative="1" as="geometry">
            <mxPoint as="offset" />
          </mxGeometry>
        </mxCell>
        <mxCell id="sfA238IPMwlKO-HkluRP-82" style="edgeStyle=orthogonalEdgeStyle;rounded=0;orthogonalLoop=1;jettySize=auto;html=1;exitX=1;exitY=0.5;exitDx=0;exitDy=0;entryX=0;entryY=0.5;entryDx=0;entryDy=0;" parent="sfA238IPMwlKO-HkluRP-1" source="sfA238IPMwlKO-HkluRP-61" target="sfA238IPMwlKO-HkluRP-47" edge="1">
          <mxGeometry relative="1" as="geometry" />
        </mxCell>
        <mxCell id="sfA238IPMwlKO-HkluRP-83" value="is a" style="edgeLabel;html=1;align=center;verticalAlign=middle;resizable=0;points=[];" parent="sfA238IPMwlKO-HkluRP-82" connectable="0" vertex="1">
          <mxGeometry x="-0.1638" y="2" relative="1" as="geometry">
            <mxPoint as="offset" />
          </mxGeometry>
        </mxCell>
        <mxCell id="sfA238IPMwlKO-HkluRP-84" style="edgeStyle=orthogonalEdgeStyle;rounded=0;orthogonalLoop=1;jettySize=auto;html=1;exitX=0;exitY=1;exitDx=0;exitDy=0;entryX=1;entryY=0.25;entryDx=0;entryDy=0;" parent="sfA238IPMwlKO-HkluRP-1" source="sfA238IPMwlKO-HkluRP-61" target="sfA238IPMwlKO-HkluRP-79" edge="1">
          <mxGeometry relative="1" as="geometry" />
        </mxCell>
        <mxCell id="sfA238IPMwlKO-HkluRP-85" value="filter" style="edgeLabel;html=1;align=center;verticalAlign=middle;resizable=0;points=[];" parent="sfA238IPMwlKO-HkluRP-84" connectable="0" vertex="1">
          <mxGeometry x="-0.6301" y="-1" relative="1" as="geometry">
            <mxPoint x="3" y="8" as="offset" />
          </mxGeometry>
        </mxCell>
        <mxCell id="sfA238IPMwlKO-HkluRP-86" style="edgeStyle=orthogonalEdgeStyle;rounded=0;orthogonalLoop=1;jettySize=auto;html=1;exitX=0.5;exitY=1;exitDx=0;exitDy=0;entryX=0.5;entryY=0;entryDx=0;entryDy=0;" parent="sfA238IPMwlKO-HkluRP-1" source="sfA238IPMwlKO-HkluRP-55" target="sfA238IPMwlKO-HkluRP-34" edge="1">
          <mxGeometry relative="1" as="geometry" />
        </mxCell>
        <mxCell id="sfA238IPMwlKO-HkluRP-87" value="is a" style="edgeLabel;html=1;align=center;verticalAlign=middle;resizable=0;points=[];" parent="sfA238IPMwlKO-HkluRP-86" connectable="0" vertex="1">
          <mxGeometry x="-0.0339" relative="1" as="geometry">
            <mxPoint as="offset" />
          </mxGeometry>
        </mxCell>
        <mxCell id="sfA238IPMwlKO-HkluRP-88" style="edgeStyle=orthogonalEdgeStyle;rounded=0;orthogonalLoop=1;jettySize=auto;html=1;exitX=0.75;exitY=1;exitDx=0;exitDy=0;entryX=0.25;entryY=0;entryDx=0;entryDy=0;" parent="sfA238IPMwlKO-HkluRP-1" source="sfA238IPMwlKO-HkluRP-57" target="sfA238IPMwlKO-HkluRP-34" edge="1">
          <mxGeometry relative="1" as="geometry" />
        </mxCell>
        <mxCell id="sfA238IPMwlKO-HkluRP-89" value="is a" style="edgeLabel;html=1;align=center;verticalAlign=middle;resizable=0;points=[];" parent="sfA238IPMwlKO-HkluRP-88" connectable="0" vertex="1">
          <mxGeometry x="0.0654" y="-1" relative="1" as="geometry">
            <mxPoint as="offset" />
          </mxGeometry>
        </mxCell>
        <mxCell id="sfA238IPMwlKO-HkluRP-90" style="edgeStyle=orthogonalEdgeStyle;rounded=0;orthogonalLoop=1;jettySize=auto;html=1;exitX=0.75;exitY=1;exitDx=0;exitDy=0;entryX=1;entryY=0.5;entryDx=0;entryDy=0;" parent="sfA238IPMwlKO-HkluRP-1" source="sfA238IPMwlKO-HkluRP-61" target="sfA238IPMwlKO-HkluRP-9" edge="1">
          <mxGeometry relative="1" as="geometry">
            <Array as="points">
              <mxPoint x="157" y="311" />
              <mxPoint x="638" y="311" />
              <mxPoint x="638" y="641" />
            </Array>
          </mxGeometry>
        </mxCell>
        <mxCell id="sfA238IPMwlKO-HkluRP-91" value="is a" style="edgeLabel;html=1;align=center;verticalAlign=middle;resizable=0;points=[];" parent="sfA238IPMwlKO-HkluRP-90" connectable="0" vertex="1">
          <mxGeometry x="0.6031" y="-4" relative="1" as="geometry">
            <mxPoint as="offset" />
          </mxGeometry>
        </mxCell>
        <mxCell id="sfA238IPMwlKO-HkluRP-92" style="edgeStyle=orthogonalEdgeStyle;rounded=0;orthogonalLoop=1;jettySize=auto;html=1;exitX=0.5;exitY=1;exitDx=0;exitDy=0;entryX=0.75;entryY=0;entryDx=0;entryDy=0;" parent="sfA238IPMwlKO-HkluRP-1" source="sfA238IPMwlKO-HkluRP-52" target="sfA238IPMwlKO-HkluRP-34" edge="1">
          <mxGeometry relative="1" as="geometry" />
        </mxCell>
        <mxCell id="sfA238IPMwlKO-HkluRP-93" value="is a" style="edgeLabel;html=1;align=center;verticalAlign=middle;resizable=0;points=[];" parent="sfA238IPMwlKO-HkluRP-92" connectable="0" vertex="1">
          <mxGeometry x="0.0424" y="2" relative="1" as="geometry">
            <mxPoint as="offset" />
          </mxGeometry>
        </mxCell>
        <mxCell id="sfA238IPMwlKO-HkluRP-94" style="edgeStyle=orthogonalEdgeStyle;rounded=0;orthogonalLoop=1;jettySize=auto;html=1;exitX=0;exitY=0.25;exitDx=0;exitDy=0;entryX=0;entryY=0.5;entryDx=0;entryDy=0;" parent="sfA238IPMwlKO-HkluRP-1" source="sfA238IPMwlKO-HkluRP-34" target="sfA238IPMwlKO-HkluRP-12" edge="1">
          <mxGeometry relative="1" as="geometry" />
        </mxCell>
        <mxCell id="sfA238IPMwlKO-HkluRP-95" value="is a" style="edgeLabel;html=1;align=center;verticalAlign=middle;resizable=0;points=[];" parent="sfA238IPMwlKO-HkluRP-94" connectable="0" vertex="1">
          <mxGeometry x="-0.2773" y="-2" relative="1" as="geometry">
            <mxPoint as="offset" />
          </mxGeometry>
        </mxCell>
        <mxCell id="sfA238IPMwlKO-HkluRP-96" style="edgeStyle=orthogonalEdgeStyle;rounded=0;orthogonalLoop=1;jettySize=auto;html=1;exitX=1;exitY=0.5;exitDx=0;exitDy=0;entryX=0.1;entryY=0.917;entryDx=0;entryDy=0;entryPerimeter=0;" parent="sfA238IPMwlKO-HkluRP-1" source="sfA238IPMwlKO-HkluRP-18" target="sfA238IPMwlKO-HkluRP-34" edge="1">
          <mxGeometry relative="1" as="geometry" />
        </mxCell>
        <mxCell id="sfA238IPMwlKO-HkluRP-97" value="is a" style="edgeLabel;html=1;align=center;verticalAlign=middle;resizable=0;points=[];" parent="sfA238IPMwlKO-HkluRP-96" connectable="0" vertex="1">
          <mxGeometry x="-0.6849" relative="1" as="geometry">
            <mxPoint as="offset" />
          </mxGeometry>
        </mxCell>
      </root>
    </mxGraphModel>
  </diagram>
  <diagram name="CM-New" id="ngYz0DCBs_h1ydfmqYq7">
    <mxGraphModel grid="0" page="0" gridSize="10" guides="1" tooltips="1" connect="1" arrows="1" fold="1" pageScale="1" pageWidth="827" pageHeight="1169" math="0" shadow="0">
      <root>
        <mxCell id="XHsJwrghjLuHo-Jrxw7z-0" />
        <mxCell id="XHsJwrghjLuHo-Jrxw7z-1" parent="XHsJwrghjLuHo-Jrxw7z-0" />
        <mxCell id="XHsJwrghjLuHo-Jrxw7z-2" value="" style="group" parent="XHsJwrghjLuHo-Jrxw7z-1" connectable="0" vertex="1">
          <mxGeometry x="332" y="490" width="293" height="237" as="geometry" />
        </mxCell>
        <mxCell id="XHsJwrghjLuHo-Jrxw7z-3" value="" style="rounded=0;whiteSpace=wrap;html=1;fillColor=#fff2cc;strokeColor=#d6b656;" parent="XHsJwrghjLuHo-Jrxw7z-2" vertex="1">
          <mxGeometry y="34" width="293" height="203" as="geometry" />
        </mxCell>
        <mxCell id="XHsJwrghjLuHo-Jrxw7z-4" value="Product Catalog" style="text;html=1;align=center;verticalAlign=middle;resizable=0;points=[];autosize=1;strokeColor=none;fillColor=none;fontSize=16;fontFamily=Times New Roman;fontStyle=1" parent="XHsJwrghjLuHo-Jrxw7z-2" vertex="1">
          <mxGeometry x="89.5" width="122" height="31" as="geometry" />
        </mxCell>
        <mxCell id="XHsJwrghjLuHo-Jrxw7z-5" style="edgeStyle=orthogonalEdgeStyle;rounded=0;orthogonalLoop=1;jettySize=auto;html=1;exitX=0.75;exitY=1;exitDx=0;exitDy=0;entryX=0.75;entryY=0;entryDx=0;entryDy=0;" parent="XHsJwrghjLuHo-Jrxw7z-2" source="XHsJwrghjLuHo-Jrxw7z-8" target="XHsJwrghjLuHo-Jrxw7z-9" edge="1">
          <mxGeometry relative="1" as="geometry">
            <Array as="points">
              <mxPoint x="122" y="112" />
              <mxPoint x="251" y="112" />
            </Array>
          </mxGeometry>
        </mxCell>
        <mxCell id="XHsJwrghjLuHo-Jrxw7z-6" value="1...*" style="edgeLabel;html=1;align=center;verticalAlign=middle;resizable=0;points=[];" parent="XHsJwrghjLuHo-Jrxw7z-5" connectable="0" vertex="1">
          <mxGeometry x="-0.6322" y="1" relative="1" as="geometry">
            <mxPoint as="offset" />
          </mxGeometry>
        </mxCell>
        <mxCell id="XHsJwrghjLuHo-Jrxw7z-7" value="0...*" style="edgeLabel;html=1;align=center;verticalAlign=middle;resizable=0;points=[];" parent="XHsJwrghjLuHo-Jrxw7z-5" connectable="0" vertex="1">
          <mxGeometry x="0.5517" y="2" relative="1" as="geometry">
            <mxPoint as="offset" />
          </mxGeometry>
        </mxCell>
        <mxCell id="XHsJwrghjLuHo-Jrxw7z-8" value="&lt;p style=&quot;margin:0px;margin-top:4px;text-align:center;&quot;&gt;&lt;b&gt;Rating&lt;/b&gt;&lt;/p&gt;&lt;hr size=&quot;1&quot; style=&quot;border-style:solid;&quot;&gt;&lt;div style=&quot;height:2px;&quot;&gt;&lt;/div&gt;" style="verticalAlign=top;align=left;overflow=fill;html=1;whiteSpace=wrap;fillColor=#ffff88;strokeColor=#36393d;" parent="XHsJwrghjLuHo-Jrxw7z-2" vertex="1">
          <mxGeometry x="17" y="57" width="140" height="40" as="geometry" />
        </mxCell>
        <mxCell id="XHsJwrghjLuHo-Jrxw7z-9" value="&lt;p style=&quot;margin:0px;margin-top:4px;text-align:center;&quot;&gt;&lt;b&gt;Product&lt;/b&gt;&lt;/p&gt;&lt;hr size=&quot;1&quot; style=&quot;border-style:solid;&quot;&gt;&lt;div style=&quot;height:2px;&quot;&gt;&lt;/div&gt;" style="verticalAlign=top;align=left;overflow=fill;html=1;whiteSpace=wrap;fillColor=#ffff88;strokeColor=#36393d;" parent="XHsJwrghjLuHo-Jrxw7z-2" vertex="1">
          <mxGeometry x="146" y="132" width="140" height="40" as="geometry" />
        </mxCell>
        <mxCell id="XHsJwrghjLuHo-Jrxw7z-10" style="edgeStyle=orthogonalEdgeStyle;rounded=0;orthogonalLoop=1;jettySize=auto;html=1;exitX=0.5;exitY=0;exitDx=0;exitDy=0;entryX=0.5;entryY=1;entryDx=0;entryDy=0;" parent="XHsJwrghjLuHo-Jrxw7z-2" source="XHsJwrghjLuHo-Jrxw7z-12" target="XHsJwrghjLuHo-Jrxw7z-8" edge="1">
          <mxGeometry relative="1" as="geometry">
            <Array as="points">
              <mxPoint x="87" y="131" />
              <mxPoint x="87" y="131" />
            </Array>
          </mxGeometry>
        </mxCell>
        <mxCell id="XHsJwrghjLuHo-Jrxw7z-11" value="rate" style="edgeLabel;html=1;align=center;verticalAlign=middle;resizable=0;points=[];" parent="XHsJwrghjLuHo-Jrxw7z-10" connectable="0" vertex="1">
          <mxGeometry x="0.2095" relative="1" as="geometry">
            <mxPoint x="1" as="offset" />
          </mxGeometry>
        </mxCell>
        <mxCell id="XHsJwrghjLuHo-Jrxw7z-12" value="&lt;p style=&quot;margin:0px;margin-top:4px;text-align:center;&quot;&gt;&lt;b&gt;Buyer&lt;/b&gt;&lt;/p&gt;&lt;hr size=&quot;1&quot; style=&quot;border-style:solid;&quot;&gt;&lt;div style=&quot;height:2px;&quot;&gt;&lt;/div&gt;" style="verticalAlign=top;align=left;overflow=fill;html=1;whiteSpace=wrap;fillColor=#ffff88;strokeColor=#36393d;" parent="XHsJwrghjLuHo-Jrxw7z-2" vertex="1">
          <mxGeometry x="17" y="181" width="140" height="40" as="geometry" />
        </mxCell>
        <mxCell id="XHsJwrghjLuHo-Jrxw7z-13" value="" style="group" parent="XHsJwrghjLuHo-Jrxw7z-1" connectable="0" vertex="1">
          <mxGeometry x="-162" y="556" width="376" height="263" as="geometry" />
        </mxCell>
        <mxCell id="XHsJwrghjLuHo-Jrxw7z-14" value="" style="rounded=0;whiteSpace=wrap;html=1;fillColor=#f5f5f5;strokeColor=#666666;fontColor=#333333;" parent="XHsJwrghjLuHo-Jrxw7z-13" vertex="1">
          <mxGeometry x="-15.67" y="27" width="391.67" height="236" as="geometry" />
        </mxCell>
        <mxCell id="XHsJwrghjLuHo-Jrxw7z-15" value="Payment Process&lt;span style=&quot;color: rgba(0, 0, 0, 0); font-family: monospace; font-size: 0px; font-weight: 400; text-align: start;&quot;&gt;%3CmxGraphModel%3E%3Croot%3E%3CmxCell%20id%3D%220%22%2F%3E%3CmxCell%20id%3D%221%22%20parent%3D%220%22%2F%3E%3CmxCell%20id%3D%222%22%20value%3D%22Product%20Catalog%22%20style%3D%22text%3Bhtml%3D1%3Balign%3Dcenter%3BverticalAlign%3Dmiddle%3Bresizable%3D0%3Bpoints%3D%5B%5D%3Bautosize%3D1%3BstrokeColor%3Dnone%3BfillColor%3Dnone%3BfontSize%3D16%3BfontFamily%3DTimes%20New%20Roman%3BfontStyle%3D1%22%20vertex%3D%221%22%20parent%3D%221%22%3E%3CmxGeometry%20x%3D%22-34.5%22%20y%3D%22-31%22%20width%3D%22122%22%20height%3D%2231%22%20as%3D%22geometry%22%2F%3E%3C%2FmxCell%3E%3C%2Froot%3E%3C%2FmxGraphModel%3E&lt;/span&gt;" style="text;html=1;align=center;verticalAlign=middle;resizable=0;points=[];autosize=1;strokeColor=none;fillColor=none;fontSize=16;fontFamily=Times New Roman;fontStyle=1" parent="XHsJwrghjLuHo-Jrxw7z-13" vertex="1">
          <mxGeometry x="105.49291695108077" y="-3.999999999999999" width="127" height="31" as="geometry" />
        </mxCell>
        <mxCell id="XHsJwrghjLuHo-Jrxw7z-16" style="edgeStyle=orthogonalEdgeStyle;rounded=0;orthogonalLoop=1;jettySize=auto;html=1;exitX=0.5;exitY=1;exitDx=0;exitDy=0;entryX=1;entryY=0.5;entryDx=0;entryDy=0;" parent="XHsJwrghjLuHo-Jrxw7z-13" source="XHsJwrghjLuHo-Jrxw7z-18" target="XHsJwrghjLuHo-Jrxw7z-25" edge="1">
          <mxGeometry relative="1" as="geometry" />
        </mxCell>
        <mxCell id="XHsJwrghjLuHo-Jrxw7z-17" value="0...*" style="edgeLabel;html=1;align=center;verticalAlign=middle;resizable=0;points=[];" parent="XHsJwrghjLuHo-Jrxw7z-16" connectable="0" vertex="1">
          <mxGeometry x="-0.2081" y="-2" relative="1" as="geometry">
            <mxPoint as="offset" />
          </mxGeometry>
        </mxCell>
        <mxCell id="XHsJwrghjLuHo-Jrxw7z-18" value="&lt;p style=&quot;margin:0px;margin-top:4px;text-align:center;&quot;&gt;&lt;b&gt;Buyer&lt;/b&gt;&lt;/p&gt;&lt;hr size=&quot;1&quot; style=&quot;border-style:solid;&quot;&gt;&lt;div style=&quot;height:2px;&quot;&gt;&lt;/div&gt;" style="verticalAlign=top;align=left;overflow=fill;html=1;whiteSpace=wrap;fillColor=#ffff88;strokeColor=#36393d;" parent="XHsJwrghjLuHo-Jrxw7z-13" vertex="1">
          <mxGeometry x="214.10666666666668" y="47.00338983050847" width="146.22222222222223" height="44.57627118644068" as="geometry" />
        </mxCell>
        <mxCell id="XHsJwrghjLuHo-Jrxw7z-19" style="edgeStyle=orthogonalEdgeStyle;rounded=0;orthogonalLoop=1;jettySize=auto;html=1;exitX=0.75;exitY=1;exitDx=0;exitDy=0;entryX=0.25;entryY=0;entryDx=0;entryDy=0;" parent="XHsJwrghjLuHo-Jrxw7z-13" source="XHsJwrghjLuHo-Jrxw7z-25" target="XHsJwrghjLuHo-Jrxw7z-28" edge="1">
          <mxGeometry relative="1" as="geometry" />
        </mxCell>
        <mxCell id="XHsJwrghjLuHo-Jrxw7z-20" value="1...1" style="edgeLabel;html=1;align=center;verticalAlign=middle;resizable=0;points=[];" parent="XHsJwrghjLuHo-Jrxw7z-19" connectable="0" vertex="1">
          <mxGeometry x="-0.1073" y="-1" relative="1" as="geometry">
            <mxPoint as="offset" />
          </mxGeometry>
        </mxCell>
        <mxCell id="XHsJwrghjLuHo-Jrxw7z-21" style="edgeStyle=orthogonalEdgeStyle;rounded=0;orthogonalLoop=1;jettySize=auto;html=1;exitX=0;exitY=0.5;exitDx=0;exitDy=0;" parent="XHsJwrghjLuHo-Jrxw7z-13" source="XHsJwrghjLuHo-Jrxw7z-25" target="XHsJwrghjLuHo-Jrxw7z-27" edge="1">
          <mxGeometry relative="1" as="geometry" />
        </mxCell>
        <mxCell id="XHsJwrghjLuHo-Jrxw7z-22" value="1...1" style="edgeLabel;html=1;align=center;verticalAlign=middle;resizable=0;points=[];" parent="XHsJwrghjLuHo-Jrxw7z-21" connectable="0" vertex="1">
          <mxGeometry x="0.4655" y="2" relative="1" as="geometry">
            <mxPoint as="offset" />
          </mxGeometry>
        </mxCell>
        <mxCell id="XHsJwrghjLuHo-Jrxw7z-23" style="edgeStyle=orthogonalEdgeStyle;rounded=0;orthogonalLoop=1;jettySize=auto;html=1;exitX=0.25;exitY=0;exitDx=0;exitDy=0;entryX=0.5;entryY=1;entryDx=0;entryDy=0;" parent="XHsJwrghjLuHo-Jrxw7z-13" source="XHsJwrghjLuHo-Jrxw7z-25" target="XHsJwrghjLuHo-Jrxw7z-26" edge="1">
          <mxGeometry relative="1" as="geometry" />
        </mxCell>
        <mxCell id="XHsJwrghjLuHo-Jrxw7z-24" value="1...1" style="edgeLabel;html=1;align=center;verticalAlign=middle;resizable=0;points=[];" parent="XHsJwrghjLuHo-Jrxw7z-23" connectable="0" vertex="1">
          <mxGeometry x="0.0545" y="-1" relative="1" as="geometry">
            <mxPoint as="offset" />
          </mxGeometry>
        </mxCell>
        <mxCell id="XHsJwrghjLuHo-Jrxw7z-25" value="&lt;p style=&quot;margin:0px;margin-top:4px;text-align:center;&quot;&gt;&lt;b&gt;Payment&lt;/b&gt;&lt;/p&gt;&lt;hr size=&quot;1&quot; style=&quot;border-style:solid;&quot;&gt;&lt;div style=&quot;height:2px;&quot;&gt;&lt;/div&gt;" style="verticalAlign=top;align=left;overflow=fill;html=1;whiteSpace=wrap;fillColor=#ffff88;strokeColor=#36393d;" parent="XHsJwrghjLuHo-Jrxw7z-13" vertex="1">
          <mxGeometry x="95.87777777777778" y="118" width="146.22222222222223" height="47" as="geometry" />
        </mxCell>
        <mxCell id="XHsJwrghjLuHo-Jrxw7z-26" value="&lt;p style=&quot;margin:0px;margin-top:4px;text-align:center;&quot;&gt;&lt;b&gt;PaymentMethod&lt;/b&gt;&lt;/p&gt;&lt;hr size=&quot;1&quot; style=&quot;border-style:solid;&quot;&gt;&lt;div style=&quot;height:2px;&quot;&gt;&lt;/div&gt;" style="verticalAlign=top;align=left;overflow=fill;html=1;whiteSpace=wrap;fillColor=#ffff88;strokeColor=#36393d;" parent="XHsJwrghjLuHo-Jrxw7z-13" vertex="1">
          <mxGeometry x="0.004444444444443363" y="36.78" width="146.22222222222223" height="40" as="geometry" />
        </mxCell>
        <mxCell id="XHsJwrghjLuHo-Jrxw7z-27" value="&lt;p style=&quot;margin:0px;margin-top:4px;text-align:center;&quot;&gt;&lt;b&gt;PaymentStatus&lt;/b&gt;&lt;/p&gt;&lt;hr size=&quot;1&quot; style=&quot;border-style:solid;&quot;&gt;&lt;div style=&quot;height:2px;&quot;&gt;&lt;/div&gt;" style="verticalAlign=top;align=left;overflow=fill;html=1;whiteSpace=wrap;fillColor=#ffff88;strokeColor=#36393d;" parent="XHsJwrghjLuHo-Jrxw7z-13" vertex="1">
          <mxGeometry x="-4" y="215" width="146.22222222222223" height="40" as="geometry" />
        </mxCell>
        <mxCell id="XHsJwrghjLuHo-Jrxw7z-28" value="&lt;p style=&quot;margin:0px;margin-top:4px;text-align:center;&quot;&gt;&lt;b&gt;Cart Info&lt;/b&gt;&lt;/p&gt;&lt;hr size=&quot;1&quot; style=&quot;border-style:solid;&quot;&gt;&lt;div style=&quot;height:2px;&quot;&gt;&lt;/div&gt;" style="verticalAlign=top;align=left;overflow=fill;html=1;whiteSpace=wrap;fillColor=#ffff88;strokeColor=#36393d;" parent="XHsJwrghjLuHo-Jrxw7z-13" vertex="1">
          <mxGeometry x="216.0011111111111" y="212" width="146.22222222222223" height="40" as="geometry" />
        </mxCell>
        <mxCell id="XHsJwrghjLuHo-Jrxw7z-29" value="" style="group" parent="XHsJwrghjLuHo-Jrxw7z-1" connectable="0" vertex="1">
          <mxGeometry x="308" y="305" width="305" height="152" as="geometry" />
        </mxCell>
        <mxCell id="XHsJwrghjLuHo-Jrxw7z-30" value="" style="group" parent="XHsJwrghjLuHo-Jrxw7z-29" connectable="0" vertex="1">
          <mxGeometry width="305" height="121" as="geometry" />
        </mxCell>
        <mxCell id="XHsJwrghjLuHo-Jrxw7z-31" value="" style="rounded=0;whiteSpace=wrap;html=1;fillColor=#f8cecc;strokeColor=#b85450;" parent="XHsJwrghjLuHo-Jrxw7z-30" vertex="1">
          <mxGeometry y="36" width="305" height="85" as="geometry" />
        </mxCell>
        <mxCell id="XHsJwrghjLuHo-Jrxw7z-32" style="edgeStyle=orthogonalEdgeStyle;rounded=0;orthogonalLoop=1;jettySize=auto;html=1;exitX=1;exitY=0.5;exitDx=0;exitDy=0;" parent="XHsJwrghjLuHo-Jrxw7z-30" source="XHsJwrghjLuHo-Jrxw7z-34" target="XHsJwrghjLuHo-Jrxw7z-35" edge="1">
          <mxGeometry relative="1" as="geometry" />
        </mxCell>
        <mxCell id="XHsJwrghjLuHo-Jrxw7z-33" value="1...*" style="edgeLabel;html=1;align=center;verticalAlign=middle;resizable=0;points=[];" parent="XHsJwrghjLuHo-Jrxw7z-32" connectable="0" vertex="1">
          <mxGeometry x="0.2836" y="-1" relative="1" as="geometry">
            <mxPoint as="offset" />
          </mxGeometry>
        </mxCell>
        <mxCell id="XHsJwrghjLuHo-Jrxw7z-34" value="&lt;p style=&quot;margin:0px;margin-top:4px;text-align:center;&quot;&gt;&lt;b&gt;User&lt;/b&gt;&lt;/p&gt;&lt;hr size=&quot;1&quot; style=&quot;border-style:solid;&quot;&gt;&lt;div style=&quot;height:2px;&quot;&gt;&lt;/div&gt;" style="verticalAlign=top;align=left;overflow=fill;html=1;whiteSpace=wrap;fillColor=#ffff88;strokeColor=#36393d;" parent="XHsJwrghjLuHo-Jrxw7z-30" vertex="1">
          <mxGeometry y="58.5" width="140" height="40" as="geometry" />
        </mxCell>
        <mxCell id="XHsJwrghjLuHo-Jrxw7z-35" value="&lt;p style=&quot;margin:0px;margin-top:4px;text-align:center;&quot;&gt;&lt;b&gt;Role&lt;/b&gt;&lt;/p&gt;&lt;hr size=&quot;1&quot; style=&quot;border-style:solid;&quot;&gt;&lt;div style=&quot;height:2px;&quot;&gt;&lt;/div&gt;" style="verticalAlign=top;align=left;overflow=fill;html=1;whiteSpace=wrap;fillColor=#ffff88;strokeColor=#36393d;" parent="XHsJwrghjLuHo-Jrxw7z-30" vertex="1">
          <mxGeometry x="173" y="57.5" width="140" height="41" as="geometry" />
        </mxCell>
        <mxCell id="XHsJwrghjLuHo-Jrxw7z-36" value="Acess Control" style="text;html=1;align=center;verticalAlign=middle;resizable=0;points=[];autosize=1;strokeColor=none;fillColor=none;fontSize=16;fontFamily=Times New Roman;fontStyle=1" parent="XHsJwrghjLuHo-Jrxw7z-29" vertex="1">
          <mxGeometry x="98" y="121" width="109" height="31" as="geometry" />
        </mxCell>
        <mxCell id="XHsJwrghjLuHo-Jrxw7z-37" value="" style="group" parent="XHsJwrghjLuHo-Jrxw7z-1" connectable="0" vertex="1">
          <mxGeometry x="-115" y="267" width="218" height="209" as="geometry" />
        </mxCell>
        <mxCell id="XHsJwrghjLuHo-Jrxw7z-38" value="" style="rounded=0;whiteSpace=wrap;html=1;fillColor=#e1d5e7;strokeColor=#9673a6;" parent="XHsJwrghjLuHo-Jrxw7z-37" vertex="1">
          <mxGeometry y="37" width="218" height="172" as="geometry" />
        </mxCell>
        <mxCell id="XHsJwrghjLuHo-Jrxw7z-39" value="Inventory" style="text;html=1;align=center;verticalAlign=middle;resizable=0;points=[];autosize=1;strokeColor=none;fillColor=none;fontSize=16;fontFamily=Times New Roman;fontStyle=1" parent="XHsJwrghjLuHo-Jrxw7z-37" vertex="1">
          <mxGeometry x="69" width="80" height="31" as="geometry" />
        </mxCell>
        <mxCell id="XHsJwrghjLuHo-Jrxw7z-40" value="" style="group" parent="XHsJwrghjLuHo-Jrxw7z-1" connectable="0" vertex="1">
          <mxGeometry x="329" y="-16" width="320" height="237" as="geometry" />
        </mxCell>
        <mxCell id="XHsJwrghjLuHo-Jrxw7z-41" value="" style="rounded=0;whiteSpace=wrap;html=1;fillColor=#dae8fc;strokeColor=#6c8ebf;" parent="XHsJwrghjLuHo-Jrxw7z-40" vertex="1">
          <mxGeometry y="34" width="320" height="203" as="geometry" />
        </mxCell>
        <mxCell id="XHsJwrghjLuHo-Jrxw7z-42" value="Shopping Cart" style="text;html=1;align=center;verticalAlign=middle;resizable=0;points=[];autosize=1;strokeColor=none;fillColor=none;fontSize=16;fontFamily=Times New Roman;fontStyle=1" parent="XHsJwrghjLuHo-Jrxw7z-40" vertex="1">
          <mxGeometry x="110.85324232081912" width="111" height="31" as="geometry" />
        </mxCell>
        <mxCell id="XHsJwrghjLuHo-Jrxw7z-43" value="&lt;p style=&quot;margin:0px;margin-top:4px;text-align:center;&quot;&gt;&lt;b&gt;Cart&lt;/b&gt;&lt;/p&gt;&lt;hr size=&quot;1&quot; style=&quot;border-style:solid;&quot;&gt;&lt;div style=&quot;height:2px;&quot;&gt;&lt;/div&gt;" style="verticalAlign=top;align=left;overflow=fill;html=1;whiteSpace=wrap;fillColor=#ffff88;strokeColor=#36393d;" parent="XHsJwrghjLuHo-Jrxw7z-40" vertex="1">
          <mxGeometry x="173" y="90" width="140" height="40" as="geometry" />
        </mxCell>
        <mxCell id="XHsJwrghjLuHo-Jrxw7z-44" style="edgeStyle=orthogonalEdgeStyle;rounded=0;orthogonalLoop=1;jettySize=auto;html=1;exitX=1;exitY=0.5;exitDx=0;exitDy=0;entryX=0.5;entryY=0;entryDx=0;entryDy=0;" parent="XHsJwrghjLuHo-Jrxw7z-40" source="XHsJwrghjLuHo-Jrxw7z-47" target="XHsJwrghjLuHo-Jrxw7z-43" edge="1">
          <mxGeometry relative="1" as="geometry" />
        </mxCell>
        <mxCell id="XHsJwrghjLuHo-Jrxw7z-45" value="1...*" style="edgeLabel;html=1;align=center;verticalAlign=middle;resizable=0;points=[];" parent="XHsJwrghjLuHo-Jrxw7z-44" connectable="0" vertex="1">
          <mxGeometry x="-0.7679" relative="1" as="geometry">
            <mxPoint as="offset" />
          </mxGeometry>
        </mxCell>
        <mxCell id="XHsJwrghjLuHo-Jrxw7z-46" value="0...*" style="edgeLabel;html=1;align=center;verticalAlign=middle;resizable=0;points=[];" parent="XHsJwrghjLuHo-Jrxw7z-44" connectable="0" vertex="1">
          <mxGeometry x="0.7893" y="-2" relative="1" as="geometry">
            <mxPoint x="6" y="-9" as="offset" />
          </mxGeometry>
        </mxCell>
        <mxCell id="XHsJwrghjLuHo-Jrxw7z-47" value="&lt;p style=&quot;margin:0px;margin-top:4px;text-align:center;&quot;&gt;&lt;b&gt;Product&lt;/b&gt;&lt;/p&gt;&lt;hr size=&quot;1&quot; style=&quot;border-style:solid;&quot;&gt;&lt;div style=&quot;height:2px;&quot;&gt;&lt;/div&gt;" style="verticalAlign=top;align=left;overflow=fill;html=1;whiteSpace=wrap;fillColor=#ffff88;strokeColor=#36393d;" parent="XHsJwrghjLuHo-Jrxw7z-40" vertex="1">
          <mxGeometry x="15" y="46" width="140" height="40" as="geometry" />
        </mxCell>
        <mxCell id="XHsJwrghjLuHo-Jrxw7z-48" style="edgeStyle=orthogonalEdgeStyle;rounded=0;orthogonalLoop=1;jettySize=auto;html=1;exitX=0.25;exitY=0;exitDx=0;exitDy=0;entryX=0.25;entryY=1;entryDx=0;entryDy=0;" parent="XHsJwrghjLuHo-Jrxw7z-40" source="XHsJwrghjLuHo-Jrxw7z-52" target="XHsJwrghjLuHo-Jrxw7z-43" edge="1">
          <mxGeometry relative="1" as="geometry" />
        </mxCell>
        <mxCell id="XHsJwrghjLuHo-Jrxw7z-49" value="enable/disable" style="edgeLabel;html=1;align=center;verticalAlign=middle;resizable=0;points=[];" parent="XHsJwrghjLuHo-Jrxw7z-48" connectable="0" vertex="1">
          <mxGeometry x="-0.4378" y="1" relative="1" as="geometry">
            <mxPoint x="9" y="2" as="offset" />
          </mxGeometry>
        </mxCell>
        <mxCell id="XHsJwrghjLuHo-Jrxw7z-50" style="edgeStyle=orthogonalEdgeStyle;rounded=0;orthogonalLoop=1;jettySize=auto;html=1;exitX=1;exitY=0.5;exitDx=0;exitDy=0;entryX=0.75;entryY=1;entryDx=0;entryDy=0;" parent="XHsJwrghjLuHo-Jrxw7z-40" source="XHsJwrghjLuHo-Jrxw7z-52" target="XHsJwrghjLuHo-Jrxw7z-43" edge="1">
          <mxGeometry relative="1" as="geometry" />
        </mxCell>
        <mxCell id="XHsJwrghjLuHo-Jrxw7z-51" value="see all carts" style="edgeLabel;html=1;align=center;verticalAlign=middle;resizable=0;points=[];" parent="XHsJwrghjLuHo-Jrxw7z-50" connectable="0" vertex="1">
          <mxGeometry x="0.3798" relative="1" as="geometry">
            <mxPoint as="offset" />
          </mxGeometry>
        </mxCell>
        <mxCell id="XHsJwrghjLuHo-Jrxw7z-52" value="&lt;p style=&quot;margin:0px;margin-top:4px;text-align:center;&quot;&gt;&lt;b&gt;SysAdmin&lt;/b&gt;&lt;/p&gt;&lt;hr size=&quot;1&quot; style=&quot;border-style:solid;&quot;&gt;&lt;div style=&quot;height:2px;&quot;&gt;&lt;/div&gt;" style="verticalAlign=top;align=left;overflow=fill;html=1;whiteSpace=wrap;fillColor=#ffff88;strokeColor=#36393d;" parent="XHsJwrghjLuHo-Jrxw7z-40" vertex="1">
          <mxGeometry x="153" y="184" width="140" height="40" as="geometry" />
        </mxCell>
        <mxCell id="XHsJwrghjLuHo-Jrxw7z-53" style="edgeStyle=orthogonalEdgeStyle;rounded=0;orthogonalLoop=1;jettySize=auto;html=1;exitX=0.75;exitY=0;exitDx=0;exitDy=0;" parent="XHsJwrghjLuHo-Jrxw7z-40" source="XHsJwrghjLuHo-Jrxw7z-55" target="XHsJwrghjLuHo-Jrxw7z-43" edge="1">
          <mxGeometry relative="1" as="geometry" />
        </mxCell>
        <mxCell id="XHsJwrghjLuHo-Jrxw7z-54" value="actions" style="edgeLabel;html=1;align=center;verticalAlign=middle;resizable=0;points=[];" parent="XHsJwrghjLuHo-Jrxw7z-53" connectable="0" vertex="1">
          <mxGeometry x="-0.0933" y="-2" relative="1" as="geometry">
            <mxPoint as="offset" />
          </mxGeometry>
        </mxCell>
        <mxCell id="XHsJwrghjLuHo-Jrxw7z-55" value="&lt;p style=&quot;margin:0px;margin-top:4px;text-align:center;&quot;&gt;&lt;b&gt;Buyer&lt;/b&gt;&lt;/p&gt;&lt;hr size=&quot;1&quot; style=&quot;border-style:solid;&quot;&gt;&lt;div style=&quot;height:2px;&quot;&gt;&lt;/div&gt;" style="verticalAlign=top;align=left;overflow=fill;html=1;whiteSpace=wrap;fillColor=#ffff88;strokeColor=#36393d;" parent="XHsJwrghjLuHo-Jrxw7z-40" vertex="1">
          <mxGeometry x="13" y="130" width="140" height="40" as="geometry" />
        </mxCell>
        <mxCell id="XHsJwrghjLuHo-Jrxw7z-56" value="" style="group" parent="XHsJwrghjLuHo-Jrxw7z-1" connectable="0" vertex="1">
          <mxGeometry x="-124" y="-31" width="325" height="234" as="geometry" />
        </mxCell>
        <mxCell id="XHsJwrghjLuHo-Jrxw7z-57" value="" style="rounded=0;whiteSpace=wrap;html=1;fillColor=#d5e8d4;strokeColor=#82b366;" parent="XHsJwrghjLuHo-Jrxw7z-56" vertex="1">
          <mxGeometry y="31" width="325" height="203" as="geometry" />
        </mxCell>
        <mxCell id="XHsJwrghjLuHo-Jrxw7z-58" value="Product Catalog" style="text;html=1;align=center;verticalAlign=middle;resizable=0;points=[];autosize=1;strokeColor=none;fillColor=none;fontSize=16;fontFamily=Times New Roman;fontStyle=1" parent="XHsJwrghjLuHo-Jrxw7z-56" vertex="1">
          <mxGeometry x="101.5" width="122" height="31" as="geometry" />
        </mxCell>
        <mxCell id="XHsJwrghjLuHo-Jrxw7z-59" style="edgeStyle=orthogonalEdgeStyle;rounded=0;orthogonalLoop=1;jettySize=auto;html=1;exitX=0.5;exitY=1;exitDx=0;exitDy=0;entryX=0.5;entryY=0;entryDx=0;entryDy=0;" parent="XHsJwrghjLuHo-Jrxw7z-56" source="XHsJwrghjLuHo-Jrxw7z-61" target="XHsJwrghjLuHo-Jrxw7z-62" edge="1">
          <mxGeometry relative="1" as="geometry" />
        </mxCell>
        <mxCell id="XHsJwrghjLuHo-Jrxw7z-60" value="+ CRUD&lt;div&gt;+ Assign Inventory&lt;/div&gt;" style="edgeLabel;html=1;align=left;verticalAlign=middle;resizable=0;points=[];" parent="XHsJwrghjLuHo-Jrxw7z-59" connectable="0" vertex="1">
          <mxGeometry x="-0.2516" y="-1" relative="1" as="geometry">
            <mxPoint x="-30" y="4" as="offset" />
          </mxGeometry>
        </mxCell>
        <mxCell id="XHsJwrghjLuHo-Jrxw7z-61" value="&lt;p style=&quot;margin:0px;margin-top:4px;text-align:center;&quot;&gt;&lt;b&gt;Product&lt;/b&gt;&lt;/p&gt;&lt;hr size=&quot;1&quot; style=&quot;border-style:solid;&quot;&gt;&lt;div style=&quot;height:2px;&quot;&gt;&lt;/div&gt;" style="verticalAlign=top;align=left;overflow=fill;html=1;whiteSpace=wrap;fillColor=#ffff88;strokeColor=#36393d;" parent="XHsJwrghjLuHo-Jrxw7z-56" vertex="1">
          <mxGeometry x="176" y="86" width="140" height="40" as="geometry" />
        </mxCell>
        <mxCell id="XHsJwrghjLuHo-Jrxw7z-62" value="&lt;p style=&quot;margin:0px;margin-top:4px;text-align:center;&quot;&gt;&lt;b&gt;SysAdmin&lt;/b&gt;&lt;/p&gt;&lt;hr size=&quot;1&quot; style=&quot;border-style:solid;&quot;&gt;&lt;div style=&quot;height:2px;&quot;&gt;&lt;/div&gt;" style="verticalAlign=top;align=left;overflow=fill;html=1;whiteSpace=wrap;fillColor=#ffff88;strokeColor=#36393d;" parent="XHsJwrghjLuHo-Jrxw7z-56" vertex="1">
          <mxGeometry x="176" y="188" width="140" height="40" as="geometry" />
        </mxCell>
        <mxCell id="XHsJwrghjLuHo-Jrxw7z-63" style="edgeStyle=orthogonalEdgeStyle;rounded=0;orthogonalLoop=1;jettySize=auto;html=1;exitX=0.5;exitY=1;exitDx=0;exitDy=0;entryX=0.5;entryY=0;entryDx=0;entryDy=0;" parent="XHsJwrghjLuHo-Jrxw7z-1" source="XHsJwrghjLuHo-Jrxw7z-67" target="XHsJwrghjLuHo-Jrxw7z-68" edge="1">
          <mxGeometry relative="1" as="geometry" />
        </mxCell>
        <mxCell id="XHsJwrghjLuHo-Jrxw7z-64" value="CRUD" style="edgeLabel;html=1;align=center;verticalAlign=middle;resizable=0;points=[];" parent="XHsJwrghjLuHo-Jrxw7z-63" connectable="0" vertex="1">
          <mxGeometry x="-0.0171" relative="1" as="geometry">
            <mxPoint as="offset" />
          </mxGeometry>
        </mxCell>
        <mxCell id="XHsJwrghjLuHo-Jrxw7z-65" style="edgeStyle=orthogonalEdgeStyle;rounded=0;orthogonalLoop=1;jettySize=auto;html=1;exitX=1;exitY=0.5;exitDx=0;exitDy=0;entryX=0;entryY=0.5;entryDx=0;entryDy=0;" parent="XHsJwrghjLuHo-Jrxw7z-1" source="XHsJwrghjLuHo-Jrxw7z-67" target="XHsJwrghjLuHo-Jrxw7z-34" edge="1">
          <mxGeometry relative="1" as="geometry" />
        </mxCell>
        <mxCell id="XHsJwrghjLuHo-Jrxw7z-66" value="is a" style="edgeLabel;html=1;align=center;verticalAlign=middle;resizable=0;points=[];" parent="XHsJwrghjLuHo-Jrxw7z-65" connectable="0" vertex="1">
          <mxGeometry x="-0.0148" relative="1" as="geometry">
            <mxPoint as="offset" />
          </mxGeometry>
        </mxCell>
        <mxCell id="XHsJwrghjLuHo-Jrxw7z-67" value="&lt;p style=&quot;margin:0px;margin-top:4px;text-align:center;&quot;&gt;&lt;b&gt;SysAdmin&lt;/b&gt;&lt;/p&gt;&lt;hr size=&quot;1&quot; style=&quot;border-style:solid;&quot;&gt;&lt;div style=&quot;height:2px;&quot;&gt;&lt;/div&gt;" style="verticalAlign=top;align=left;overflow=fill;html=1;whiteSpace=wrap;fillColor=#ffff88;strokeColor=#36393d;" parent="XHsJwrghjLuHo-Jrxw7z-1" vertex="1">
          <mxGeometry x="-76" y="331" width="140" height="40" as="geometry" />
        </mxCell>
        <mxCell id="XHsJwrghjLuHo-Jrxw7z-68" value="&lt;p style=&quot;margin:0px;margin-top:4px;text-align:center;&quot;&gt;&lt;b&gt;Inventory&lt;/b&gt;&lt;/p&gt;&lt;hr size=&quot;1&quot; style=&quot;border-style:solid;&quot;&gt;&lt;div style=&quot;height:2px;&quot;&gt;&lt;/div&gt;" style="verticalAlign=top;align=left;overflow=fill;html=1;whiteSpace=wrap;fillColor=#ffff88;strokeColor=#36393d;" parent="XHsJwrghjLuHo-Jrxw7z-1" vertex="1">
          <mxGeometry x="-76" y="406" width="140" height="40" as="geometry" />
        </mxCell>
        <mxCell id="XHsJwrghjLuHo-Jrxw7z-69" style="edgeStyle=orthogonalEdgeStyle;rounded=0;orthogonalLoop=1;jettySize=auto;html=1;exitX=1;exitY=0.5;exitDx=0;exitDy=0;entryX=0.5;entryY=0;entryDx=0;entryDy=0;" parent="XHsJwrghjLuHo-Jrxw7z-1" source="XHsJwrghjLuHo-Jrxw7z-71" target="XHsJwrghjLuHo-Jrxw7z-61" edge="1">
          <mxGeometry relative="1" as="geometry" />
        </mxCell>
        <mxCell id="XHsJwrghjLuHo-Jrxw7z-70" value="is a" style="edgeLabel;html=1;align=center;verticalAlign=middle;resizable=0;points=[];" parent="XHsJwrghjLuHo-Jrxw7z-69" connectable="0" vertex="1">
          <mxGeometry x="-0.3673" relative="1" as="geometry">
            <mxPoint as="offset" />
          </mxGeometry>
        </mxCell>
        <mxCell id="XHsJwrghjLuHo-Jrxw7z-71" value="&lt;p style=&quot;margin:0px;margin-top:4px;text-align:center;&quot;&gt;&lt;b&gt;Hot Product&lt;/b&gt;&lt;/p&gt;&lt;hr size=&quot;1&quot; style=&quot;border-style:solid;&quot;&gt;&lt;div style=&quot;height:2px;&quot;&gt;&lt;/div&gt;" style="verticalAlign=top;align=left;overflow=fill;html=1;whiteSpace=wrap;fillColor=#ffff88;strokeColor=#36393d;" parent="XHsJwrghjLuHo-Jrxw7z-1" vertex="1">
          <mxGeometry x="-103" y="15" width="140" height="40" as="geometry" />
        </mxCell>
        <mxCell id="XHsJwrghjLuHo-Jrxw7z-72" style="edgeStyle=orthogonalEdgeStyle;rounded=0;orthogonalLoop=1;jettySize=auto;html=1;exitX=1;exitY=0.5;exitDx=0;exitDy=0;" parent="XHsJwrghjLuHo-Jrxw7z-1" source="XHsJwrghjLuHo-Jrxw7z-76" target="XHsJwrghjLuHo-Jrxw7z-61" edge="1">
          <mxGeometry relative="1" as="geometry" />
        </mxCell>
        <mxCell id="XHsJwrghjLuHo-Jrxw7z-73" value="1...*" style="edgeLabel;html=1;align=center;verticalAlign=middle;resizable=0;points=[];" parent="XHsJwrghjLuHo-Jrxw7z-72" connectable="0" vertex="1">
          <mxGeometry x="0.3724" y="1" relative="1" as="geometry">
            <mxPoint as="offset" />
          </mxGeometry>
        </mxCell>
        <mxCell id="XHsJwrghjLuHo-Jrxw7z-74" style="edgeStyle=orthogonalEdgeStyle;rounded=0;orthogonalLoop=1;jettySize=auto;html=1;exitX=0;exitY=0.5;exitDx=0;exitDy=0;entryX=0;entryY=0.5;entryDx=0;entryDy=0;" parent="XHsJwrghjLuHo-Jrxw7z-1" source="XHsJwrghjLuHo-Jrxw7z-76" target="XHsJwrghjLuHo-Jrxw7z-68" edge="1">
          <mxGeometry relative="1" as="geometry" />
        </mxCell>
        <mxCell id="XHsJwrghjLuHo-Jrxw7z-75" value="is a" style="edgeLabel;html=1;align=center;verticalAlign=middle;resizable=0;points=[];" parent="XHsJwrghjLuHo-Jrxw7z-74" connectable="0" vertex="1">
          <mxGeometry x="-0.0974" y="-2" relative="1" as="geometry">
            <mxPoint as="offset" />
          </mxGeometry>
        </mxCell>
        <mxCell id="XHsJwrghjLuHo-Jrxw7z-76" value="&lt;p style=&quot;margin:0px;margin-top:4px;text-align:center;&quot;&gt;&lt;b&gt;Inventory Info&lt;/b&gt;&lt;/p&gt;&lt;hr size=&quot;1&quot; style=&quot;border-style:solid;&quot;&gt;&lt;div style=&quot;height:2px;&quot;&gt;&lt;/div&gt;" style="verticalAlign=top;align=left;overflow=fill;html=1;whiteSpace=wrap;fillColor=#ffff88;strokeColor=#36393d;" parent="XHsJwrghjLuHo-Jrxw7z-1" vertex="1">
          <mxGeometry x="-124" y="77" width="140" height="40" as="geometry" />
        </mxCell>
        <mxCell id="XHsJwrghjLuHo-Jrxw7z-77" style="edgeStyle=orthogonalEdgeStyle;rounded=0;orthogonalLoop=1;jettySize=auto;html=1;exitX=0.5;exitY=1;exitDx=0;exitDy=0;entryX=0.389;entryY=-0.002;entryDx=0;entryDy=0;entryPerimeter=0;" parent="XHsJwrghjLuHo-Jrxw7z-1" source="XHsJwrghjLuHo-Jrxw7z-79" target="XHsJwrghjLuHo-Jrxw7z-34" edge="1">
          <mxGeometry relative="1" as="geometry" />
        </mxCell>
        <mxCell id="XHsJwrghjLuHo-Jrxw7z-78" value="is a" style="edgeLabel;html=1;align=center;verticalAlign=middle;resizable=0;points=[];" parent="XHsJwrghjLuHo-Jrxw7z-77" connectable="0" vertex="1">
          <mxGeometry x="0.041" y="3" relative="1" as="geometry">
            <mxPoint as="offset" />
          </mxGeometry>
        </mxCell>
        <mxCell id="XHsJwrghjLuHo-Jrxw7z-79" value="&lt;p style=&quot;margin:0px;margin-top:4px;text-align:center;&quot;&gt;&lt;b&gt;Buyer&lt;/b&gt;&lt;/p&gt;&lt;hr size=&quot;1&quot; style=&quot;border-style:solid;&quot;&gt;&lt;div style=&quot;height:2px;&quot;&gt;&lt;/div&gt;" style="verticalAlign=top;align=left;overflow=fill;html=1;whiteSpace=wrap;fillColor=#ffff88;strokeColor=#36393d;" parent="XHsJwrghjLuHo-Jrxw7z-1" vertex="1">
          <mxGeometry x="-124" y="142" width="140" height="40" as="geometry" />
        </mxCell>
        <mxCell id="XHsJwrghjLuHo-Jrxw7z-80" style="edgeStyle=orthogonalEdgeStyle;rounded=0;orthogonalLoop=1;jettySize=auto;html=1;exitX=1;exitY=0.5;exitDx=0;exitDy=0;entryX=1;entryY=0.5;entryDx=0;entryDy=0;" parent="XHsJwrghjLuHo-Jrxw7z-1" source="XHsJwrghjLuHo-Jrxw7z-28" target="XHsJwrghjLuHo-Jrxw7z-43" edge="1">
          <mxGeometry relative="1" as="geometry" />
        </mxCell>
        <mxCell id="XHsJwrghjLuHo-Jrxw7z-81" value="is a" style="edgeLabel;html=1;align=center;verticalAlign=middle;resizable=0;points=[];" parent="XHsJwrghjLuHo-Jrxw7z-80" connectable="0" vertex="1">
          <mxGeometry x="0.601" y="-4" relative="1" as="geometry">
            <mxPoint as="offset" />
          </mxGeometry>
        </mxCell>
        <mxCell id="XHsJwrghjLuHo-Jrxw7z-82" style="edgeStyle=orthogonalEdgeStyle;rounded=0;orthogonalLoop=1;jettySize=auto;html=1;exitX=1;exitY=0.5;exitDx=0;exitDy=0;entryX=0;entryY=0.5;entryDx=0;entryDy=0;" parent="XHsJwrghjLuHo-Jrxw7z-1" source="XHsJwrghjLuHo-Jrxw7z-61" target="XHsJwrghjLuHo-Jrxw7z-47" edge="1">
          <mxGeometry relative="1" as="geometry" />
        </mxCell>
        <mxCell id="XHsJwrghjLuHo-Jrxw7z-83" value="is a" style="edgeLabel;html=1;align=center;verticalAlign=middle;resizable=0;points=[];" parent="XHsJwrghjLuHo-Jrxw7z-82" connectable="0" vertex="1">
          <mxGeometry x="-0.1638" y="2" relative="1" as="geometry">
            <mxPoint as="offset" />
          </mxGeometry>
        </mxCell>
        <mxCell id="XHsJwrghjLuHo-Jrxw7z-84" style="edgeStyle=orthogonalEdgeStyle;rounded=0;orthogonalLoop=1;jettySize=auto;html=1;exitX=0;exitY=1;exitDx=0;exitDy=0;entryX=1;entryY=0.25;entryDx=0;entryDy=0;" parent="XHsJwrghjLuHo-Jrxw7z-1" source="XHsJwrghjLuHo-Jrxw7z-61" target="XHsJwrghjLuHo-Jrxw7z-79" edge="1">
          <mxGeometry relative="1" as="geometry" />
        </mxCell>
        <mxCell id="XHsJwrghjLuHo-Jrxw7z-85" value="filter" style="edgeLabel;html=1;align=center;verticalAlign=middle;resizable=0;points=[];" parent="XHsJwrghjLuHo-Jrxw7z-84" connectable="0" vertex="1">
          <mxGeometry x="-0.6301" y="-1" relative="1" as="geometry">
            <mxPoint x="3" y="8" as="offset" />
          </mxGeometry>
        </mxCell>
        <mxCell id="XHsJwrghjLuHo-Jrxw7z-86" style="edgeStyle=orthogonalEdgeStyle;rounded=0;orthogonalLoop=1;jettySize=auto;html=1;exitX=0.5;exitY=1;exitDx=0;exitDy=0;entryX=0.5;entryY=0;entryDx=0;entryDy=0;" parent="XHsJwrghjLuHo-Jrxw7z-1" source="XHsJwrghjLuHo-Jrxw7z-55" target="XHsJwrghjLuHo-Jrxw7z-34" edge="1">
          <mxGeometry relative="1" as="geometry" />
        </mxCell>
        <mxCell id="XHsJwrghjLuHo-Jrxw7z-87" value="is a" style="edgeLabel;html=1;align=center;verticalAlign=middle;resizable=0;points=[];" parent="XHsJwrghjLuHo-Jrxw7z-86" connectable="0" vertex="1">
          <mxGeometry x="-0.0339" relative="1" as="geometry">
            <mxPoint as="offset" />
          </mxGeometry>
        </mxCell>
        <mxCell id="XHsJwrghjLuHo-Jrxw7z-88" style="edgeStyle=orthogonalEdgeStyle;rounded=0;orthogonalLoop=1;jettySize=auto;html=1;exitX=0.75;exitY=1;exitDx=0;exitDy=0;entryX=0.25;entryY=0;entryDx=0;entryDy=0;" parent="XHsJwrghjLuHo-Jrxw7z-1" source="XHsJwrghjLuHo-Jrxw7z-57" target="XHsJwrghjLuHo-Jrxw7z-34" edge="1">
          <mxGeometry relative="1" as="geometry" />
        </mxCell>
        <mxCell id="XHsJwrghjLuHo-Jrxw7z-89" value="is a" style="edgeLabel;html=1;align=center;verticalAlign=middle;resizable=0;points=[];" parent="XHsJwrghjLuHo-Jrxw7z-88" connectable="0" vertex="1">
          <mxGeometry x="0.0654" y="-1" relative="1" as="geometry">
            <mxPoint as="offset" />
          </mxGeometry>
        </mxCell>
        <mxCell id="XHsJwrghjLuHo-Jrxw7z-90" style="edgeStyle=orthogonalEdgeStyle;rounded=0;orthogonalLoop=1;jettySize=auto;html=1;exitX=0.75;exitY=1;exitDx=0;exitDy=0;entryX=1;entryY=0.5;entryDx=0;entryDy=0;" parent="XHsJwrghjLuHo-Jrxw7z-1" source="XHsJwrghjLuHo-Jrxw7z-61" target="XHsJwrghjLuHo-Jrxw7z-9" edge="1">
          <mxGeometry relative="1" as="geometry">
            <Array as="points">
              <mxPoint x="157" y="311" />
              <mxPoint x="638" y="311" />
              <mxPoint x="638" y="641" />
            </Array>
          </mxGeometry>
        </mxCell>
        <mxCell id="XHsJwrghjLuHo-Jrxw7z-91" value="is a" style="edgeLabel;html=1;align=center;verticalAlign=middle;resizable=0;points=[];" parent="XHsJwrghjLuHo-Jrxw7z-90" connectable="0" vertex="1">
          <mxGeometry x="0.6031" y="-4" relative="1" as="geometry">
            <mxPoint as="offset" />
          </mxGeometry>
        </mxCell>
        <mxCell id="XHsJwrghjLuHo-Jrxw7z-92" style="edgeStyle=orthogonalEdgeStyle;rounded=0;orthogonalLoop=1;jettySize=auto;html=1;exitX=0.5;exitY=1;exitDx=0;exitDy=0;entryX=0.649;entryY=0.037;entryDx=0;entryDy=0;entryPerimeter=0;" parent="XHsJwrghjLuHo-Jrxw7z-1" source="XHsJwrghjLuHo-Jrxw7z-52" target="XHsJwrghjLuHo-Jrxw7z-34" edge="1">
          <mxGeometry relative="1" as="geometry" />
        </mxCell>
        <mxCell id="XHsJwrghjLuHo-Jrxw7z-93" value="is a" style="edgeLabel;html=1;align=center;verticalAlign=middle;resizable=0;points=[];" parent="XHsJwrghjLuHo-Jrxw7z-92" connectable="0" vertex="1">
          <mxGeometry x="0.0424" y="2" relative="1" as="geometry">
            <mxPoint as="offset" />
          </mxGeometry>
        </mxCell>
        <mxCell id="XHsJwrghjLuHo-Jrxw7z-94" style="edgeStyle=orthogonalEdgeStyle;rounded=0;orthogonalLoop=1;jettySize=auto;html=1;exitX=0;exitY=0.25;exitDx=0;exitDy=0;entryX=0;entryY=0.5;entryDx=0;entryDy=0;" parent="XHsJwrghjLuHo-Jrxw7z-1" source="XHsJwrghjLuHo-Jrxw7z-34" target="XHsJwrghjLuHo-Jrxw7z-12" edge="1">
          <mxGeometry relative="1" as="geometry" />
        </mxCell>
        <mxCell id="XHsJwrghjLuHo-Jrxw7z-95" value="is a" style="edgeLabel;html=1;align=center;verticalAlign=middle;resizable=0;points=[];" parent="XHsJwrghjLuHo-Jrxw7z-94" connectable="0" vertex="1">
          <mxGeometry x="-0.2773" y="-2" relative="1" as="geometry">
            <mxPoint as="offset" />
          </mxGeometry>
        </mxCell>
        <mxCell id="XHsJwrghjLuHo-Jrxw7z-96" style="edgeStyle=orthogonalEdgeStyle;rounded=0;orthogonalLoop=1;jettySize=auto;html=1;exitX=1;exitY=0.5;exitDx=0;exitDy=0;entryX=0.1;entryY=0.917;entryDx=0;entryDy=0;entryPerimeter=0;" parent="XHsJwrghjLuHo-Jrxw7z-1" source="XHsJwrghjLuHo-Jrxw7z-18" target="XHsJwrghjLuHo-Jrxw7z-34" edge="1">
          <mxGeometry relative="1" as="geometry" />
        </mxCell>
        <mxCell id="XHsJwrghjLuHo-Jrxw7z-97" value="is a" style="edgeLabel;html=1;align=center;verticalAlign=middle;resizable=0;points=[];" parent="XHsJwrghjLuHo-Jrxw7z-96" connectable="0" vertex="1">
          <mxGeometry x="-0.6849" relative="1" as="geometry">
            <mxPoint as="offset" />
          </mxGeometry>
        </mxCell>
        <mxCell id="ppcDWA21j3qeqWiCLgi1-0" value="" style="rounded=0;whiteSpace=wrap;html=1;fillColor=#ffe6cc;strokeColor=#d79b00;" parent="XHsJwrghjLuHo-Jrxw7z-1" vertex="1">
          <mxGeometry x="762" y="199" width="464" height="279" as="geometry" />
        </mxCell>
        <mxCell id="ppcDWA21j3qeqWiCLgi1-1" value="Promotion &amp; Loyalty" style="text;html=1;align=center;verticalAlign=middle;resizable=0;points=[];autosize=1;strokeColor=none;fillColor=none;fontSize=16;fontFamily=Times New Roman;fontStyle=1" parent="XHsJwrghjLuHo-Jrxw7z-1" vertex="1">
          <mxGeometry x="926" y="170" width="132" height="28" as="geometry" />
        </mxCell>
        <mxCell id="GgaKgKp0KP5c8oybrhre-16" style="edgeStyle=orthogonalEdgeStyle;rounded=0;orthogonalLoop=1;jettySize=auto;html=1;exitX=0;exitY=0.5;exitDx=0;exitDy=0;entryX=0;entryY=0.75;entryDx=0;entryDy=0;" edge="1" parent="XHsJwrghjLuHo-Jrxw7z-1" source="ppcDWA21j3qeqWiCLgi1-2" target="ppcDWA21j3qeqWiCLgi1-9">
          <mxGeometry relative="1" as="geometry">
            <Array as="points">
              <mxPoint x="778" y="243" />
              <mxPoint x="778" y="461" />
            </Array>
          </mxGeometry>
        </mxCell>
        <mxCell id="GgaKgKp0KP5c8oybrhre-18" value="1...n" style="edgeLabel;html=1;align=center;verticalAlign=middle;resizable=0;points=[];" connectable="0" vertex="1" parent="GgaKgKp0KP5c8oybrhre-16">
          <mxGeometry x="-0.6221" relative="1" as="geometry">
            <mxPoint as="offset" />
          </mxGeometry>
        </mxCell>
        <mxCell id="GgaKgKp0KP5c8oybrhre-19" value="1...n" style="edgeLabel;html=1;align=center;verticalAlign=middle;resizable=0;points=[];" connectable="0" vertex="1" parent="GgaKgKp0KP5c8oybrhre-16">
          <mxGeometry x="0.6193" y="-1" relative="1" as="geometry">
            <mxPoint as="offset" />
          </mxGeometry>
        </mxCell>
        <mxCell id="ppcDWA21j3qeqWiCLgi1-2" value="&lt;p style=&quot;margin:0;margin-top:4px;text-align:center;&quot;&gt;&lt;b&gt;PromotionCampaign&lt;/b&gt;&lt;/p&gt;&lt;hr size=&quot;1&quot; style=&quot;border-style:solid&quot;&gt;&lt;div style=&quot;height:2px&quot;&gt;&lt;/div&gt;" style="verticalAlign=top;align=left;overflow=fill;html=1;whiteSpace=wrap;fillColor=#ffff88;strokeColor=#36393d;" parent="XHsJwrghjLuHo-Jrxw7z-1" vertex="1">
          <mxGeometry x="814" y="208" width="160" height="40" as="geometry" />
        </mxCell>
        <mxCell id="ppcDWA21j3qeqWiCLgi1-4" value="&lt;p style=&quot;margin:0;margin-top:4px;text-align:center;&quot;&gt;&lt;b&gt;VoucherRedemption&lt;/b&gt;&lt;/p&gt;&lt;hr size=&quot;1&quot; style=&quot;border-style:solid&quot;&gt;&lt;div style=&quot;height:2px&quot;&gt;&lt;/div&gt;" style="verticalAlign=top;align=left;overflow=fill;html=1;whiteSpace=wrap;fillColor=#ffff88;strokeColor=#36393d;" parent="XHsJwrghjLuHo-Jrxw7z-1" vertex="1">
          <mxGeometry x="1010" y="280" width="160" height="40" as="geometry" />
        </mxCell>
        <mxCell id="GgaKgKp0KP5c8oybrhre-0" style="edgeStyle=orthogonalEdgeStyle;rounded=0;orthogonalLoop=1;jettySize=auto;html=1;entryX=1;entryY=0.75;entryDx=0;entryDy=0;exitX=1;exitY=0.5;exitDx=0;exitDy=0;" edge="1" parent="XHsJwrghjLuHo-Jrxw7z-1" source="ppcDWA21j3qeqWiCLgi1-5" target="GgaKgKp0KP5c8oybrhre-3">
          <mxGeometry relative="1" as="geometry">
            <mxPoint x="878.7999877929688" y="255.39996337890625" as="targetPoint" />
            <mxPoint x="524" y="331" as="sourcePoint" />
          </mxGeometry>
        </mxCell>
        <mxCell id="GgaKgKp0KP5c8oybrhre-1" value="1...1" style="edgeLabel;html=1;align=center;verticalAlign=middle;resizable=0;points=[];" connectable="0" vertex="1" parent="GgaKgKp0KP5c8oybrhre-0">
          <mxGeometry x="0.6068" y="2" relative="1" as="geometry">
            <mxPoint as="offset" />
          </mxGeometry>
        </mxCell>
        <mxCell id="GgaKgKp0KP5c8oybrhre-2" value="1...1" style="edgeLabel;html=1;align=center;verticalAlign=middle;resizable=0;points=[];" connectable="0" vertex="1" parent="GgaKgKp0KP5c8oybrhre-0">
          <mxGeometry x="-0.6696" y="1" relative="1" as="geometry">
            <mxPoint as="offset" />
          </mxGeometry>
        </mxCell>
        <mxCell id="GgaKgKp0KP5c8oybrhre-11" style="edgeStyle=orthogonalEdgeStyle;rounded=0;orthogonalLoop=1;jettySize=auto;html=1;exitX=0.75;exitY=1;exitDx=0;exitDy=0;entryX=0.25;entryY=1;entryDx=0;entryDy=0;" edge="1" parent="XHsJwrghjLuHo-Jrxw7z-1" source="ppcDWA21j3qeqWiCLgi1-5" target="ppcDWA21j3qeqWiCLgi1-6">
          <mxGeometry relative="1" as="geometry" />
        </mxCell>
        <mxCell id="GgaKgKp0KP5c8oybrhre-12" value="1...*" style="edgeLabel;html=1;align=center;verticalAlign=middle;resizable=0;points=[];" connectable="0" vertex="1" parent="GgaKgKp0KP5c8oybrhre-11">
          <mxGeometry x="-0.4872" y="-2" relative="1" as="geometry">
            <mxPoint y="-6" as="offset" />
          </mxGeometry>
        </mxCell>
        <mxCell id="GgaKgKp0KP5c8oybrhre-13" value="0...*" style="edgeLabel;html=1;align=center;verticalAlign=middle;resizable=0;points=[];" connectable="0" vertex="1" parent="GgaKgKp0KP5c8oybrhre-11">
          <mxGeometry x="0.4487" relative="1" as="geometry">
            <mxPoint y="-5" as="offset" />
          </mxGeometry>
        </mxCell>
        <mxCell id="ppcDWA21j3qeqWiCLgi1-5" value="&lt;p style=&quot;margin:0;margin-top:4px;text-align:center;&quot;&gt;&lt;b&gt;LoyaltyAccount&lt;/b&gt;&lt;/p&gt;&lt;hr size=&quot;1&quot; style=&quot;border-style:solid&quot;&gt;&lt;div style=&quot;height:2px&quot;&gt;&lt;/div&gt;" style="verticalAlign=top;align=left;overflow=fill;html=1;whiteSpace=wrap;fillColor=#ffff88;strokeColor=#36393d;" parent="XHsJwrghjLuHo-Jrxw7z-1" vertex="1">
          <mxGeometry x="814" y="337" width="160" height="40" as="geometry" />
        </mxCell>
        <mxCell id="GgaKgKp0KP5c8oybrhre-14" style="edgeStyle=orthogonalEdgeStyle;rounded=0;orthogonalLoop=1;jettySize=auto;html=1;exitX=0.5;exitY=1;exitDx=0;exitDy=0;" edge="1" parent="XHsJwrghjLuHo-Jrxw7z-1" source="ppcDWA21j3qeqWiCLgi1-6" target="ppcDWA21j3qeqWiCLgi1-7">
          <mxGeometry relative="1" as="geometry" />
        </mxCell>
        <mxCell id="GgaKgKp0KP5c8oybrhre-15" value="earn/redeem" style="edgeLabel;html=1;align=center;verticalAlign=middle;resizable=0;points=[];" connectable="0" vertex="1" parent="GgaKgKp0KP5c8oybrhre-14">
          <mxGeometry x="-0.0815" relative="1" as="geometry">
            <mxPoint as="offset" />
          </mxGeometry>
        </mxCell>
        <mxCell id="ppcDWA21j3qeqWiCLgi1-6" value="&lt;p style=&quot;margin:0;margin-top:4px;text-align:center;&quot;&gt;&lt;b&gt;PointsTransaction&lt;/b&gt;&lt;/p&gt;&lt;hr size=&quot;1&quot; style=&quot;border-style:solid&quot;&gt;&lt;div style=&quot;height:2px&quot;&gt;&lt;/div&gt;" style="verticalAlign=top;align=left;overflow=fill;html=1;whiteSpace=wrap;fillColor=#ffff88;strokeColor=#36393d;" parent="XHsJwrghjLuHo-Jrxw7z-1" vertex="1">
          <mxGeometry x="1010" y="337" width="160" height="40" as="geometry" />
        </mxCell>
        <mxCell id="ppcDWA21j3qeqWiCLgi1-7" value="&lt;p style=&quot;margin:0;margin-top:4px;text-align:center;&quot;&gt;&lt;b&gt;RedemptionRule&lt;/b&gt;&lt;/p&gt;&lt;hr size=&quot;1&quot; style=&quot;border-style:solid&quot;&gt;&lt;div style=&quot;height:2px&quot;&gt;&lt;/div&gt;" style="verticalAlign=top;align=left;overflow=fill;html=1;whiteSpace=wrap;fillColor=#ffff88;strokeColor=#36393d;" parent="XHsJwrghjLuHo-Jrxw7z-1" vertex="1">
          <mxGeometry x="1010" y="431" width="160" height="40" as="geometry" />
        </mxCell>
        <mxCell id="ppcDWA21j3qeqWiCLgi1-9" value="&lt;p style=&quot;margin:0;margin-top:4px;text-align:center;&quot;&gt;&lt;b&gt;Product&lt;/b&gt;&lt;/p&gt;&lt;hr size=&quot;1&quot; style=&quot;border-style:solid&quot;&gt;&lt;div style=&quot;height:2px&quot;&gt;&lt;/div&gt;" style="verticalAlign=top;align=left;overflow=fill;html=1;whiteSpace=wrap;fillColor=#ffff88;strokeColor=#36393d;" parent="XHsJwrghjLuHo-Jrxw7z-1" vertex="1">
          <mxGeometry x="814" y="431" width="160" height="40" as="geometry" />
        </mxCell>
        <mxCell id="B39UiMVmP5ZNVuSjr9EJ-0" value="" style="rounded=0;whiteSpace=wrap;html=1;fillColor=#b0e3e6;strokeColor=#0e8088;" vertex="1" parent="XHsJwrghjLuHo-Jrxw7z-1">
          <mxGeometry x="741" y="-172" width="478" height="318" as="geometry" />
        </mxCell>
        <mxCell id="B39UiMVmP5ZNVuSjr9EJ-1" value="Employee Management" style="text;html=1;align=center;verticalAlign=middle;resizable=0;points=[];autosize=1;strokeColor=none;fillColor=none;fontSize=16;fontFamily=Times New Roman;fontStyle=1" vertex="1" parent="XHsJwrghjLuHo-Jrxw7z-1">
          <mxGeometry x="910" y="-202" width="140" height="28" as="geometry" />
        </mxCell>
        <mxCell id="GgaKgKp0KP5c8oybrhre-28" style="edgeStyle=orthogonalEdgeStyle;rounded=0;orthogonalLoop=1;jettySize=auto;html=1;exitX=0;exitY=0.75;exitDx=0;exitDy=0;entryX=0.75;entryY=1;entryDx=0;entryDy=0;" edge="1" parent="XHsJwrghjLuHo-Jrxw7z-1" source="B39UiMVmP5ZNVuSjr9EJ-2" target="XHsJwrghjLuHo-Jrxw7z-34">
          <mxGeometry relative="1" as="geometry">
            <Array as="points">
              <mxPoint x="793" y="-95" />
              <mxPoint x="701" y="-95" />
              <mxPoint x="701" y="419" />
              <mxPoint x="413" y="419" />
            </Array>
          </mxGeometry>
        </mxCell>
        <mxCell id="GgaKgKp0KP5c8oybrhre-30" value="is a" style="edgeLabel;html=1;align=center;verticalAlign=middle;resizable=0;points=[];" connectable="0" vertex="1" parent="GgaKgKp0KP5c8oybrhre-28">
          <mxGeometry x="-0.2741" y="-3" relative="1" as="geometry">
            <mxPoint as="offset" />
          </mxGeometry>
        </mxCell>
        <mxCell id="GgaKgKp0KP5c8oybrhre-31" style="edgeStyle=orthogonalEdgeStyle;rounded=0;orthogonalLoop=1;jettySize=auto;html=1;exitX=0.75;exitY=0;exitDx=0;exitDy=0;entryX=0.25;entryY=0;entryDx=0;entryDy=0;" edge="1" parent="XHsJwrghjLuHo-Jrxw7z-1" source="B39UiMVmP5ZNVuSjr9EJ-2" target="B39UiMVmP5ZNVuSjr9EJ-3">
          <mxGeometry relative="1" as="geometry">
            <Array as="points">
              <mxPoint x="913" y="-157" />
              <mxPoint x="1067" y="-157" />
            </Array>
          </mxGeometry>
        </mxCell>
        <mxCell id="GgaKgKp0KP5c8oybrhre-32" value="1...*" style="edgeLabel;html=1;align=center;verticalAlign=middle;resizable=0;points=[];" connectable="0" vertex="1" parent="GgaKgKp0KP5c8oybrhre-31">
          <mxGeometry x="-0.7" y="-1" relative="1" as="geometry">
            <mxPoint x="-1" y="-2" as="offset" />
          </mxGeometry>
        </mxCell>
        <mxCell id="GgaKgKp0KP5c8oybrhre-33" value="1...1" style="edgeLabel;html=1;align=center;verticalAlign=middle;resizable=0;points=[];" connectable="0" vertex="1" parent="GgaKgKp0KP5c8oybrhre-31">
          <mxGeometry x="0.4667" y="1" relative="1" as="geometry">
            <mxPoint x="8" as="offset" />
          </mxGeometry>
        </mxCell>
        <mxCell id="GgaKgKp0KP5c8oybrhre-40" style="edgeStyle=orthogonalEdgeStyle;rounded=0;orthogonalLoop=1;jettySize=auto;html=1;exitX=1;exitY=0.25;exitDx=0;exitDy=0;entryX=1;entryY=0.5;entryDx=0;entryDy=0;" edge="1" parent="XHsJwrghjLuHo-Jrxw7z-1" source="B39UiMVmP5ZNVuSjr9EJ-2" target="B39UiMVmP5ZNVuSjr9EJ-4">
          <mxGeometry relative="1" as="geometry" />
        </mxCell>
        <mxCell id="GgaKgKp0KP5c8oybrhre-41" value="1...*" style="edgeLabel;html=1;align=center;verticalAlign=middle;resizable=0;points=[];" connectable="0" vertex="1" parent="GgaKgKp0KP5c8oybrhre-40">
          <mxGeometry x="-0.3455" y="1" relative="1" as="geometry">
            <mxPoint as="offset" />
          </mxGeometry>
        </mxCell>
        <mxCell id="GgaKgKp0KP5c8oybrhre-42" value="1...*" style="edgeLabel;html=1;align=center;verticalAlign=middle;resizable=0;points=[];" connectable="0" vertex="1" parent="GgaKgKp0KP5c8oybrhre-40">
          <mxGeometry x="0.2682" y="1" relative="1" as="geometry">
            <mxPoint as="offset" />
          </mxGeometry>
        </mxCell>
        <mxCell id="GgaKgKp0KP5c8oybrhre-46" style="edgeStyle=orthogonalEdgeStyle;rounded=0;orthogonalLoop=1;jettySize=auto;html=1;exitX=0;exitY=0.25;exitDx=0;exitDy=0;entryX=0;entryY=0.75;entryDx=0;entryDy=0;" edge="1" parent="XHsJwrghjLuHo-Jrxw7z-1" source="B39UiMVmP5ZNVuSjr9EJ-2" target="B39UiMVmP5ZNVuSjr9EJ-6">
          <mxGeometry relative="1" as="geometry" />
        </mxCell>
        <mxCell id="GgaKgKp0KP5c8oybrhre-47" value="1...*" style="edgeLabel;html=1;align=center;verticalAlign=middle;resizable=0;points=[];" connectable="0" vertex="1" parent="GgaKgKp0KP5c8oybrhre-46">
          <mxGeometry x="-0.532" y="-3" relative="1" as="geometry">
            <mxPoint as="offset" />
          </mxGeometry>
        </mxCell>
        <mxCell id="GgaKgKp0KP5c8oybrhre-48" value="1...*" style="edgeLabel;html=1;align=center;verticalAlign=middle;resizable=0;points=[];" connectable="0" vertex="1" parent="GgaKgKp0KP5c8oybrhre-46">
          <mxGeometry x="0.548" y="-2" relative="1" as="geometry">
            <mxPoint as="offset" />
          </mxGeometry>
        </mxCell>
        <mxCell id="GgaKgKp0KP5c8oybrhre-49" style="edgeStyle=orthogonalEdgeStyle;rounded=0;orthogonalLoop=1;jettySize=auto;html=1;exitX=0.5;exitY=0;exitDx=0;exitDy=0;entryX=1;entryY=0.5;entryDx=0;entryDy=0;" edge="1" parent="XHsJwrghjLuHo-Jrxw7z-1" source="B39UiMVmP5ZNVuSjr9EJ-2" target="B39UiMVmP5ZNVuSjr9EJ-7">
          <mxGeometry relative="1" as="geometry" />
        </mxCell>
        <mxCell id="GgaKgKp0KP5c8oybrhre-50" value="1...*" style="edgeLabel;html=1;align=center;verticalAlign=middle;resizable=0;points=[];" connectable="0" vertex="1" parent="GgaKgKp0KP5c8oybrhre-49">
          <mxGeometry x="-0.8819" y="-1" relative="1" as="geometry">
            <mxPoint as="offset" />
          </mxGeometry>
        </mxCell>
        <mxCell id="GgaKgKp0KP5c8oybrhre-51" value="1...*" style="edgeLabel;html=1;align=center;verticalAlign=middle;resizable=0;points=[];" connectable="0" vertex="1" parent="GgaKgKp0KP5c8oybrhre-49">
          <mxGeometry x="0.854" y="-1" relative="1" as="geometry">
            <mxPoint as="offset" />
          </mxGeometry>
        </mxCell>
        <mxCell id="GgaKgKp0KP5c8oybrhre-52" style="edgeStyle=orthogonalEdgeStyle;rounded=0;orthogonalLoop=1;jettySize=auto;html=1;exitX=0.25;exitY=0;exitDx=0;exitDy=0;entryX=0;entryY=0.5;entryDx=0;entryDy=0;" edge="1" parent="XHsJwrghjLuHo-Jrxw7z-1" source="B39UiMVmP5ZNVuSjr9EJ-2" target="B39UiMVmP5ZNVuSjr9EJ-8">
          <mxGeometry relative="1" as="geometry">
            <Array as="points">
              <mxPoint x="833" y="-141" />
              <mxPoint x="752" y="-141" />
              <mxPoint x="752" y="103" />
            </Array>
          </mxGeometry>
        </mxCell>
        <mxCell id="GgaKgKp0KP5c8oybrhre-53" value="1...*" style="edgeLabel;html=1;align=center;verticalAlign=middle;resizable=0;points=[];" connectable="0" vertex="1" parent="GgaKgKp0KP5c8oybrhre-52">
          <mxGeometry x="-0.8633" y="2" relative="1" as="geometry">
            <mxPoint as="offset" />
          </mxGeometry>
        </mxCell>
        <mxCell id="GgaKgKp0KP5c8oybrhre-54" value="1...*" style="edgeLabel;html=1;align=center;verticalAlign=middle;resizable=0;points=[];" connectable="0" vertex="1" parent="GgaKgKp0KP5c8oybrhre-52">
          <mxGeometry x="0.8673" y="-1" relative="1" as="geometry">
            <mxPoint x="1" as="offset" />
          </mxGeometry>
        </mxCell>
        <mxCell id="B39UiMVmP5ZNVuSjr9EJ-2" value="&lt;p style=&quot;margin:0;margin-top:4px;text-align:center;&quot;&gt;&lt;b&gt;Employee&lt;/b&gt;&lt;/p&gt;&lt;hr size=&quot;1&quot; style=&quot;border-style:solid&quot;&gt;&lt;div style=&quot;height:2px&quot;&gt;&lt;/div&gt;" style="verticalAlign=top;align=left;overflow=fill;html=1;whiteSpace=wrap;fillColor=#ffff88;strokeColor=#36393d;" vertex="1" parent="XHsJwrghjLuHo-Jrxw7z-1">
          <mxGeometry x="793" y="-121" width="160" height="40" as="geometry" />
        </mxCell>
        <mxCell id="B39UiMVmP5ZNVuSjr9EJ-3" value="&lt;p style=&quot;margin:0;margin-top:4px;text-align:center;&quot;&gt;&lt;b&gt;Department&lt;/b&gt;&lt;/p&gt;&lt;hr size=&quot;1&quot; style=&quot;border-style:solid&quot;&gt;&lt;div style=&quot;height:2px&quot;&gt;&lt;/div&gt;" style="verticalAlign=top;align=left;overflow=fill;html=1;whiteSpace=wrap;fillColor=#ffff88;strokeColor=#36393d;" vertex="1" parent="XHsJwrghjLuHo-Jrxw7z-1">
          <mxGeometry x="1027" y="-121" width="160" height="40" as="geometry" />
        </mxCell>
        <mxCell id="GgaKgKp0KP5c8oybrhre-43" style="edgeStyle=orthogonalEdgeStyle;rounded=0;orthogonalLoop=1;jettySize=auto;html=1;exitX=0.75;exitY=1;exitDx=0;exitDy=0;entryX=0.25;entryY=1;entryDx=0;entryDy=0;" edge="1" parent="XHsJwrghjLuHo-Jrxw7z-1" source="B39UiMVmP5ZNVuSjr9EJ-4" target="B39UiMVmP5ZNVuSjr9EJ-5">
          <mxGeometry relative="1" as="geometry" />
        </mxCell>
        <mxCell id="GgaKgKp0KP5c8oybrhre-44" value="1...*" style="edgeLabel;html=1;align=center;verticalAlign=middle;resizable=0;points=[];" connectable="0" vertex="1" parent="GgaKgKp0KP5c8oybrhre-43">
          <mxGeometry x="-0.5773" relative="1" as="geometry">
            <mxPoint as="offset" />
          </mxGeometry>
        </mxCell>
        <mxCell id="GgaKgKp0KP5c8oybrhre-45" value="1...*" style="edgeLabel;html=1;align=center;verticalAlign=middle;resizable=0;points=[];" connectable="0" vertex="1" parent="GgaKgKp0KP5c8oybrhre-43">
          <mxGeometry x="0.5464" y="-1" relative="1" as="geometry">
            <mxPoint as="offset" />
          </mxGeometry>
        </mxCell>
        <mxCell id="B39UiMVmP5ZNVuSjr9EJ-4" value="&lt;p style=&quot;margin:0;margin-top:4px;text-align:center;&quot;&gt;&lt;b&gt;Shift&lt;/b&gt;&lt;/p&gt;&lt;hr size=&quot;1&quot; style=&quot;border-style:solid&quot;&gt;&lt;div style=&quot;height:2px&quot;&gt;&lt;/div&gt;" style="verticalAlign=top;align=left;overflow=fill;html=1;whiteSpace=wrap;fillColor=#ffff88;strokeColor=#36393d;" vertex="1" parent="XHsJwrghjLuHo-Jrxw7z-1">
          <mxGeometry x="793" y="-63" width="160" height="40" as="geometry" />
        </mxCell>
        <mxCell id="B39UiMVmP5ZNVuSjr9EJ-5" value="&lt;p style=&quot;margin:0;margin-top:4px;text-align:center;&quot;&gt;&lt;b&gt;Attendance&lt;/b&gt;&lt;/p&gt;&lt;hr size=&quot;1&quot; style=&quot;border-style:solid&quot;&gt;&lt;div style=&quot;height:2px&quot;&gt;&lt;/div&gt;" style="verticalAlign=top;align=left;overflow=fill;html=1;whiteSpace=wrap;fillColor=#ffff88;strokeColor=#36393d;" vertex="1" parent="XHsJwrghjLuHo-Jrxw7z-1">
          <mxGeometry x="1027" y="-63" width="160" height="40" as="geometry" />
        </mxCell>
        <mxCell id="B39UiMVmP5ZNVuSjr9EJ-6" value="&lt;p style=&quot;margin:0;margin-top:4px;text-align:center;&quot;&gt;&lt;b&gt;EmploymentContract&lt;/b&gt;&lt;/p&gt;&lt;hr size=&quot;1&quot; style=&quot;border-style:solid&quot;&gt;&lt;div style=&quot;height:2px&quot;&gt;&lt;/div&gt;" style="verticalAlign=top;align=left;overflow=fill;html=1;whiteSpace=wrap;fillColor=#ffff88;strokeColor=#36393d;" vertex="1" parent="XHsJwrghjLuHo-Jrxw7z-1">
          <mxGeometry x="793" y="19" width="160" height="40" as="geometry" />
        </mxCell>
        <mxCell id="B39UiMVmP5ZNVuSjr9EJ-7" value="&lt;p style=&quot;margin:0;margin-top:4px;text-align:center;&quot;&gt;&lt;b&gt;Payroll&lt;/b&gt;&lt;/p&gt;&lt;hr size=&quot;1&quot; style=&quot;border-style:solid&quot;&gt;&lt;div style=&quot;height:2px&quot;&gt;&lt;/div&gt;" style="verticalAlign=top;align=left;overflow=fill;html=1;whiteSpace=wrap;fillColor=#ffff88;strokeColor=#36393d;" vertex="1" parent="XHsJwrghjLuHo-Jrxw7z-1">
          <mxGeometry x="1027" y="24" width="160" height="40" as="geometry" />
        </mxCell>
        <mxCell id="B39UiMVmP5ZNVuSjr9EJ-8" value="&lt;p style=&quot;margin:0;margin-top:4px;text-align:center;&quot;&gt;&lt;b&gt;Role (Ref)&lt;/b&gt;&lt;/p&gt;&lt;hr size=&quot;1&quot; style=&quot;border-style:solid&quot;&gt;&lt;div style=&quot;height:2px&quot;&gt;&lt;/div&gt;" style="verticalAlign=top;align=left;overflow=fill;html=1;whiteSpace=wrap;fillColor=#ffff88;strokeColor=#36393d;" vertex="1" parent="XHsJwrghjLuHo-Jrxw7z-1">
          <mxGeometry x="905" y="82.5" width="160" height="40" as="geometry" />
        </mxCell>
        <mxCell id="GgaKgKp0KP5c8oybrhre-24" style="edgeStyle=orthogonalEdgeStyle;rounded=0;orthogonalLoop=1;jettySize=auto;html=1;exitX=0.75;exitY=0;exitDx=0;exitDy=0;entryX=0.25;entryY=0;entryDx=0;entryDy=0;" edge="1" parent="XHsJwrghjLuHo-Jrxw7z-1" source="GgaKgKp0KP5c8oybrhre-3" target="ppcDWA21j3qeqWiCLgi1-4">
          <mxGeometry relative="1" as="geometry" />
        </mxCell>
        <mxCell id="GgaKgKp0KP5c8oybrhre-26" value="uses" style="edgeLabel;html=1;align=center;verticalAlign=middle;resizable=0;points=[];" connectable="0" vertex="1" parent="GgaKgKp0KP5c8oybrhre-24">
          <mxGeometry y="-2" relative="1" as="geometry">
            <mxPoint as="offset" />
          </mxGeometry>
        </mxCell>
        <mxCell id="GgaKgKp0KP5c8oybrhre-3" value="&lt;p style=&quot;margin:0;margin-top:4px;text-align:center;&quot;&gt;&lt;b&gt;Buyer&lt;/b&gt;&lt;/p&gt;&lt;hr size=&quot;1&quot; style=&quot;border-style:solid&quot;&gt;&lt;div style=&quot;height:2px&quot;&gt;&lt;/div&gt;" style="verticalAlign=top;align=left;overflow=fill;html=1;whiteSpace=wrap;fillColor=#ffff88;strokeColor=#36393d;" vertex="1" parent="XHsJwrghjLuHo-Jrxw7z-1">
          <mxGeometry x="814" y="280" width="160" height="40" as="geometry" />
        </mxCell>
        <mxCell id="GgaKgKp0KP5c8oybrhre-20" style="edgeStyle=orthogonalEdgeStyle;rounded=0;orthogonalLoop=1;jettySize=auto;html=1;exitX=1;exitY=0.25;exitDx=0;exitDy=0;entryX=1;entryY=0.75;entryDx=0;entryDy=0;" edge="1" parent="XHsJwrghjLuHo-Jrxw7z-1" source="GgaKgKp0KP5c8oybrhre-4" target="ppcDWA21j3qeqWiCLgi1-4">
          <mxGeometry relative="1" as="geometry">
            <Array as="points">
              <mxPoint x="1205" y="218" />
              <mxPoint x="1205" y="310" />
            </Array>
          </mxGeometry>
        </mxCell>
        <mxCell id="GgaKgKp0KP5c8oybrhre-21" value="1...*" style="edgeLabel;html=1;align=center;verticalAlign=middle;resizable=0;points=[];" connectable="0" vertex="1" parent="GgaKgKp0KP5c8oybrhre-20">
          <mxGeometry x="-0.5077" relative="1" as="geometry">
            <mxPoint as="offset" />
          </mxGeometry>
        </mxCell>
        <mxCell id="GgaKgKp0KP5c8oybrhre-22" value="0...*" style="edgeLabel;html=1;align=center;verticalAlign=middle;resizable=0;points=[];" connectable="0" vertex="1" parent="GgaKgKp0KP5c8oybrhre-20">
          <mxGeometry x="0.535" y="-2" relative="1" as="geometry">
            <mxPoint x="2" y="-5" as="offset" />
          </mxGeometry>
        </mxCell>
        <mxCell id="GgaKgKp0KP5c8oybrhre-4" value="&lt;p style=&quot;margin:0;margin-top:4px;text-align:center;&quot;&gt;&lt;b&gt;Voucher&lt;/b&gt;&lt;/p&gt;&lt;hr size=&quot;1&quot; style=&quot;border-style:solid&quot;&gt;&lt;div style=&quot;height:2px&quot;&gt;&lt;/div&gt;" style="verticalAlign=top;align=left;overflow=fill;html=1;whiteSpace=wrap;fillColor=#ffff88;strokeColor=#36393d;" vertex="1" parent="XHsJwrghjLuHo-Jrxw7z-1">
          <mxGeometry x="1010" y="208" width="160" height="40" as="geometry" />
        </mxCell>
        <mxCell id="GgaKgKp0KP5c8oybrhre-7" style="edgeStyle=orthogonalEdgeStyle;rounded=0;orthogonalLoop=1;jettySize=auto;html=1;exitX=0;exitY=0.5;exitDx=0;exitDy=0;entryX=0.877;entryY=0.038;entryDx=0;entryDy=0;entryPerimeter=0;" edge="1" parent="XHsJwrghjLuHo-Jrxw7z-1" source="GgaKgKp0KP5c8oybrhre-3" target="XHsJwrghjLuHo-Jrxw7z-34">
          <mxGeometry relative="1" as="geometry" />
        </mxCell>
        <mxCell id="GgaKgKp0KP5c8oybrhre-8" value="is a" style="edgeLabel;html=1;align=center;verticalAlign=middle;resizable=0;points=[];" connectable="0" vertex="1" parent="GgaKgKp0KP5c8oybrhre-7">
          <mxGeometry x="-0.527" y="-2" relative="1" as="geometry">
            <mxPoint x="31" y="2" as="offset" />
          </mxGeometry>
        </mxCell>
      </root>
    </mxGraphModel>
  </diagram>
  <diagram name="TongQuat" id="3dQmrleEpNaMkowiqfpu">
    <mxGraphModel grid="0" page="0" gridSize="10" guides="1" tooltips="1" connect="1" arrows="1" fold="1" pageScale="1" pageWidth="827" pageHeight="1169" math="0" shadow="0">
      <root>
        <mxCell id="0" />
        <mxCell id="1" parent="0" />
        <mxCell id="kyREMHZrzQR6oombpvsC-1" value="" style="html=1;whiteSpace=wrap;" vertex="1" parent="1">
          <mxGeometry x="42" y="-177" width="1730" height="1888" as="geometry" />
        </mxCell>
        <mxCell id="7U8GxZ7w3WnnialaEuKp-1" value="Buyer" style="shape=umlActor;verticalLabelPosition=bottom;verticalAlign=top;html=1;" vertex="1" parent="1">
          <mxGeometry x="-140" y="570" width="30" height="60" as="geometry" />
        </mxCell>
        <mxCell id="7U8GxZ7w3WnnialaEuKp-2" value="SysAdmin" style="shape=umlActor;verticalLabelPosition=bottom;verticalAlign=top;html=1;" vertex="1" parent="1">
          <mxGeometry x="-123" y="948" width="30" height="60" as="geometry" />
        </mxCell>
        <mxCell id="lX7z-BF0amns0IkhrByD-1" value="System" style="shape=umlActor;verticalLabelPosition=bottom;verticalAlign=top;html=1;" vertex="1" parent="1">
          <mxGeometry x="1857" y="481" width="30" height="60" as="geometry" />
        </mxCell>
        <mxCell id="k2CaoODxFCCeN7oDZRyW-2" value="&lt;div&gt;get products by filtering and sorting&lt;/div&gt;&lt;div&gt;on price and name&lt;/div&gt;" style="ellipse;whiteSpace=wrap;html=1;verticalAlign=middle;fontFamily=Times New Roman;fontSize=20;" vertex="1" parent="1">
          <mxGeometry x="473" y="495" width="268" height="91" as="geometry" />
        </mxCell>
        <mxCell id="k2CaoODxFCCeN7oDZRyW-3" value="get the detail of specific product" style="ellipse;whiteSpace=wrap;html=1;verticalAlign=middle;fontFamily=Times New Roman;fontSize=20;" vertex="1" parent="1">
          <mxGeometry x="469" y="602" width="272" height="82" as="geometry" />
        </mxCell>
        <mxCell id="k2CaoODxFCCeN7oDZRyW-4" value="" style="html=1;verticalAlign=bottom;endArrow=block;curved=0;rounded=0;entryX=0;entryY=0.5;entryDx=0;entryDy=0;" edge="1" parent="1" source="7U8GxZ7w3WnnialaEuKp-1" target="k2CaoODxFCCeN7oDZRyW-3">
          <mxGeometry width="80" relative="1" as="geometry">
            <mxPoint x="237" y="397.5" as="sourcePoint" />
            <mxPoint x="612" y="585.5" as="targetPoint" />
          </mxGeometry>
        </mxCell>
        <mxCell id="JTu-gkLXdL1uSac2MRNm-1" value="product management" style="ellipse;whiteSpace=wrap;html=1;verticalAlign=middle;fontFamily=Times New Roman;fontSize=20;" vertex="1" parent="1">
          <mxGeometry x="356" y="930.5" width="275" height="95" as="geometry" />
        </mxCell>
        <mxCell id="JTu-gkLXdL1uSac2MRNm-2" value="update product" style="ellipse;whiteSpace=wrap;html=1;verticalAlign=middle;fontFamily=Times New Roman;fontSize=20;" vertex="1" parent="1">
          <mxGeometry x="760" y="897" width="229" height="80" as="geometry" />
        </mxCell>
        <mxCell id="JTu-gkLXdL1uSac2MRNm-3" value="get products" style="ellipse;whiteSpace=wrap;html=1;verticalAlign=middle;fontFamily=Times New Roman;fontSize=20;" vertex="1" parent="1">
          <mxGeometry x="760" y="790" width="229" height="80" as="geometry" />
        </mxCell>
        <mxCell id="JTu-gkLXdL1uSac2MRNm-4" value="create product" style="ellipse;whiteSpace=wrap;html=1;verticalAlign=middle;fontFamily=Times New Roman;fontSize=20;" vertex="1" parent="1">
          <mxGeometry x="760" y="682" width="229" height="80" as="geometry" />
        </mxCell>
        <mxCell id="JTu-gkLXdL1uSac2MRNm-5" value="delete product" style="ellipse;whiteSpace=wrap;html=1;verticalAlign=middle;fontFamily=Times New Roman;fontSize=20;" vertex="1" parent="1">
          <mxGeometry x="755" y="1012" width="229" height="80" as="geometry" />
        </mxCell>
        <mxCell id="JTu-gkLXdL1uSac2MRNm-6" value="update product with inventory" style="ellipse;whiteSpace=wrap;html=1;verticalAlign=middle;fontFamily=Times New Roman;fontSize=20;" vertex="1" parent="1">
          <mxGeometry x="753" y="1127" width="229" height="80" as="geometry" />
        </mxCell>
        <mxCell id="JTu-gkLXdL1uSac2MRNm-7" value="" style="edgeStyle=orthogonalEdgeStyle;rounded=0;orthogonalLoop=1;jettySize=auto;html=1;entryX=0;entryY=0.5;entryDx=0;entryDy=0;" edge="1" parent="1" source="7U8GxZ7w3WnnialaEuKp-2" target="JTu-gkLXdL1uSac2MRNm-1">
          <mxGeometry relative="1" as="geometry">
            <mxPoint x="243" y="978" as="sourcePoint" />
            <mxPoint x="356" y="585" as="targetPoint" />
          </mxGeometry>
        </mxCell>
        <mxCell id="JTu-gkLXdL1uSac2MRNm-8" value="Use" style="endArrow=open;endSize=12;dashed=1;html=1;rounded=0;entryX=0;entryY=0.5;entryDx=0;entryDy=0;exitX=1;exitY=0.5;exitDx=0;exitDy=0;" edge="1" parent="1" source="JTu-gkLXdL1uSac2MRNm-1" target="JTu-gkLXdL1uSac2MRNm-4">
          <mxGeometry width="160" relative="1" as="geometry">
            <mxPoint x="498" y="972" as="sourcePoint" />
            <mxPoint x="658" y="972" as="targetPoint" />
          </mxGeometry>
        </mxCell>
        <mxCell id="JTu-gkLXdL1uSac2MRNm-9" value="Use" style="endArrow=open;endSize=12;dashed=1;html=1;rounded=0;exitX=1;exitY=0.5;exitDx=0;exitDy=0;entryX=0;entryY=0.5;entryDx=0;entryDy=0;" edge="1" parent="1" source="JTu-gkLXdL1uSac2MRNm-1" target="JTu-gkLXdL1uSac2MRNm-3">
          <mxGeometry width="160" relative="1" as="geometry">
            <mxPoint x="454" y="1089.5" as="sourcePoint" />
            <mxPoint x="614" y="1089.5" as="targetPoint" />
          </mxGeometry>
        </mxCell>
        <mxCell id="JTu-gkLXdL1uSac2MRNm-10" value="Use" style="endArrow=open;endSize=12;dashed=1;html=1;rounded=0;exitX=1;exitY=0.5;exitDx=0;exitDy=0;entryX=0;entryY=0.5;entryDx=0;entryDy=0;" edge="1" parent="1" source="JTu-gkLXdL1uSac2MRNm-1" target="JTu-gkLXdL1uSac2MRNm-6">
          <mxGeometry width="160" relative="1" as="geometry">
            <mxPoint x="453" y="1198" as="sourcePoint" />
            <mxPoint x="613" y="1198" as="targetPoint" />
          </mxGeometry>
        </mxCell>
        <mxCell id="JTu-gkLXdL1uSac2MRNm-11" value="Use" style="endArrow=open;endSize=12;dashed=1;html=1;rounded=0;exitX=1;exitY=0.5;exitDx=0;exitDy=0;entryX=0.004;entryY=0.605;entryDx=0;entryDy=0;entryPerimeter=0;" edge="1" parent="1" source="JTu-gkLXdL1uSac2MRNm-1" target="JTu-gkLXdL1uSac2MRNm-5">
          <mxGeometry width="160" relative="1" as="geometry">
            <mxPoint x="516" y="1173" as="sourcePoint" />
            <mxPoint x="676" y="1173" as="targetPoint" />
          </mxGeometry>
        </mxCell>
        <mxCell id="JTu-gkLXdL1uSac2MRNm-12" value="Use" style="endArrow=open;endSize=12;dashed=1;html=1;rounded=0;exitX=1;exitY=0.5;exitDx=0;exitDy=0;entryX=0;entryY=0.5;entryDx=0;entryDy=0;" edge="1" parent="1" source="JTu-gkLXdL1uSac2MRNm-1" target="JTu-gkLXdL1uSac2MRNm-2">
          <mxGeometry width="160" relative="1" as="geometry">
            <mxPoint x="560" y="1161" as="sourcePoint" />
            <mxPoint x="720" y="1161" as="targetPoint" />
          </mxGeometry>
        </mxCell>
        <mxCell id="LsxnKe-Ea3dIAw8f05Ze-2" value="get shopping cart of buyers" style="ellipse;whiteSpace=wrap;html=1;verticalAlign=middle;fontFamily=Times New Roman;fontSize=20;" vertex="1" parent="1">
          <mxGeometry x="371" y="1053" width="274" height="114" as="geometry" />
        </mxCell>
        <mxCell id="LsxnKe-Ea3dIAw8f05Ze-3" value="&lt;div&gt;update enabled/disabled&lt;/div&gt;&lt;div&gt;shopping cart of buyer&lt;/div&gt;" style="ellipse;whiteSpace=wrap;html=1;verticalAlign=middle;fontFamily=Times New Roman;fontSize=20;" vertex="1" parent="1">
          <mxGeometry x="380" y="1183" width="279" height="118" as="geometry" />
        </mxCell>
        <mxCell id="LsxnKe-Ea3dIAw8f05Ze-4" value="" style="html=1;verticalAlign=bottom;endArrow=block;curved=0;rounded=0;entryX=0;entryY=0.5;entryDx=0;entryDy=0;" edge="1" parent="1" source="7U8GxZ7w3WnnialaEuKp-2" target="LsxnKe-Ea3dIAw8f05Ze-3">
          <mxGeometry width="80" relative="1" as="geometry">
            <mxPoint x="211" y="1156" as="sourcePoint" />
            <mxPoint x="467" y="1208" as="targetPoint" />
          </mxGeometry>
        </mxCell>
        <mxCell id="LsxnKe-Ea3dIAw8f05Ze-5" value="" style="html=1;verticalAlign=bottom;endArrow=block;curved=0;rounded=0;entryX=0;entryY=0.5;entryDx=0;entryDy=0;" edge="1" parent="1" source="7U8GxZ7w3WnnialaEuKp-2" target="LsxnKe-Ea3dIAw8f05Ze-2">
          <mxGeometry width="80" relative="1" as="geometry">
            <mxPoint x="236" y="991" as="sourcePoint" />
            <mxPoint x="440" y="1313" as="targetPoint" />
          </mxGeometry>
        </mxCell>
        <mxCell id="8XbhpfI72VvUxePat-JY-1" value="get shopping cart with products" style="ellipse;whiteSpace=wrap;html=1;verticalAlign=middle;fontFamily=Times New Roman;fontSize=20;" vertex="1" parent="1">
          <mxGeometry x="516" y="84" width="215" height="80" as="geometry" />
        </mxCell>
        <mxCell id="8XbhpfI72VvUxePat-JY-2" value="check out the shopping cart" style="ellipse;whiteSpace=wrap;html=1;verticalAlign=middle;fontFamily=Times New Roman;fontSize=20;" vertex="1" parent="1">
          <mxGeometry x="502" y="391" width="236" height="83" as="geometry" />
        </mxCell>
        <mxCell id="8XbhpfI72VvUxePat-JY-3" value="&lt;div&gt;update the amount of product&lt;/div&gt;&lt;div&gt;in the shopping cart&lt;/div&gt;" style="ellipse;whiteSpace=wrap;html=1;verticalAlign=middle;fontFamily=Times New Roman;fontSize=20;" vertex="1" parent="1">
          <mxGeometry x="506" y="186" width="235" height="84" as="geometry" />
        </mxCell>
        <mxCell id="8XbhpfI72VvUxePat-JY-4" value="delete product in the shopping cart" style="ellipse;whiteSpace=wrap;html=1;verticalAlign=middle;fontFamily=Times New Roman;fontSize=20;" vertex="1" parent="1">
          <mxGeometry x="497" y="295" width="241" height="78" as="geometry" />
        </mxCell>
        <mxCell id="8XbhpfI72VvUxePat-JY-5" value="create the shopping cart with product" style="ellipse;whiteSpace=wrap;html=1;verticalAlign=middle;fontFamily=Times New Roman;fontSize=20;" vertex="1" parent="1">
          <mxGeometry x="514" y="-21" width="215" height="80" as="geometry" />
        </mxCell>
        <mxCell id="8XbhpfI72VvUxePat-JY-6" value="update product with inventory" style="ellipse;whiteSpace=wrap;html=1;verticalAlign=middle;fontFamily=Times New Roman;fontSize=20;" vertex="1" parent="1">
          <mxGeometry x="846" y="394" width="215" height="80" as="geometry" />
        </mxCell>
        <mxCell id="8XbhpfI72VvUxePat-JY-7" value="" style="html=1;verticalAlign=bottom;endArrow=block;curved=0;rounded=0;entryX=0;entryY=0.5;entryDx=0;entryDy=0;" edge="1" parent="1" source="7U8GxZ7w3WnnialaEuKp-1" target="8XbhpfI72VvUxePat-JY-5">
          <mxGeometry width="80" relative="1" as="geometry">
            <mxPoint x="381" y="149" as="sourcePoint" />
            <mxPoint x="667" y="123" as="targetPoint" />
          </mxGeometry>
        </mxCell>
        <mxCell id="8XbhpfI72VvUxePat-JY-8" value="" style="html=1;verticalAlign=bottom;endArrow=block;curved=0;rounded=0;entryX=0;entryY=0.5;entryDx=0;entryDy=0;" edge="1" parent="1" source="7U8GxZ7w3WnnialaEuKp-1" target="8XbhpfI72VvUxePat-JY-1">
          <mxGeometry width="80" relative="1" as="geometry">
            <mxPoint x="381" y="160" as="sourcePoint" />
            <mxPoint x="658" y="68" as="targetPoint" />
          </mxGeometry>
        </mxCell>
        <mxCell id="8XbhpfI72VvUxePat-JY-9" value="" style="html=1;verticalAlign=bottom;endArrow=block;curved=0;rounded=0;entryX=0;entryY=0.5;entryDx=0;entryDy=0;" edge="1" parent="1" source="7U8GxZ7w3WnnialaEuKp-1" target="8XbhpfI72VvUxePat-JY-3">
          <mxGeometry width="80" relative="1" as="geometry">
            <mxPoint x="381" y="172" as="sourcePoint" />
            <mxPoint x="582" y="150" as="targetPoint" />
          </mxGeometry>
        </mxCell>
        <mxCell id="8XbhpfI72VvUxePat-JY-10" value="" style="html=1;verticalAlign=bottom;endArrow=block;curved=0;rounded=0;entryX=0;entryY=0.5;entryDx=0;entryDy=0;" edge="1" parent="1" source="7U8GxZ7w3WnnialaEuKp-1" target="8XbhpfI72VvUxePat-JY-4">
          <mxGeometry width="80" relative="1" as="geometry">
            <mxPoint x="381" y="183" as="sourcePoint" />
            <mxPoint x="650" y="197" as="targetPoint" />
          </mxGeometry>
        </mxCell>
        <mxCell id="8XbhpfI72VvUxePat-JY-11" value="" style="html=1;verticalAlign=bottom;endArrow=block;curved=0;rounded=0;entryX=0;entryY=0.5;entryDx=0;entryDy=0;" edge="1" parent="1" source="7U8GxZ7w3WnnialaEuKp-1" target="8XbhpfI72VvUxePat-JY-2">
          <mxGeometry width="80" relative="1" as="geometry">
            <mxPoint x="381" y="195" as="sourcePoint" />
            <mxPoint x="671" y="232" as="targetPoint" />
          </mxGeometry>
        </mxCell>
        <mxCell id="8XbhpfI72VvUxePat-JY-12" value="Use" style="endArrow=open;endSize=12;dashed=1;html=1;rounded=0;exitX=1;exitY=0.5;exitDx=0;exitDy=0;entryX=0;entryY=0.5;entryDx=0;entryDy=0;" edge="1" parent="1" source="8XbhpfI72VvUxePat-JY-2" target="8XbhpfI72VvUxePat-JY-6">
          <mxGeometry width="160" relative="1" as="geometry">
            <mxPoint x="547" y="438" as="sourcePoint" />
            <mxPoint x="707" y="438" as="targetPoint" />
          </mxGeometry>
        </mxCell>
        <mxCell id="8XbhpfI72VvUxePat-JY-13" value="" style="html=1;verticalAlign=bottom;endArrow=block;curved=0;rounded=0;entryX=0;entryY=0.5;entryDx=0;entryDy=0;" edge="1" parent="1" source="7U8GxZ7w3WnnialaEuKp-1" target="k2CaoODxFCCeN7oDZRyW-2">
          <mxGeometry width="80" relative="1" as="geometry">
            <mxPoint x="299" y="330" as="sourcePoint" />
            <mxPoint x="436" y="567" as="targetPoint" />
          </mxGeometry>
        </mxCell>
        <mxCell id="U_p9BBrsp2ADE4LVN-Fy-1" value="" style="edgeStyle=orthogonalEdgeStyle;rounded=0;orthogonalLoop=1;jettySize=auto;html=1;" edge="1" parent="1" source="lX7z-BF0amns0IkhrByD-1" target="U_p9BBrsp2ADE4LVN-Fy-2">
          <mxGeometry relative="1" as="geometry">
            <mxPoint x="1042" y="608" as="sourcePoint" />
          </mxGeometry>
        </mxCell>
        <mxCell id="U_p9BBrsp2ADE4LVN-Fy-2" value="payment process" style="ellipse;whiteSpace=wrap;html=1;verticalAlign=middle;fontFamily=Times New Roman;fontSize=20;" vertex="1" parent="1">
          <mxGeometry x="1137" y="568" width="230" height="80" as="geometry" />
        </mxCell>
        <mxCell id="U_p9BBrsp2ADE4LVN-Fy-3" value="payment process" style="ellipse;whiteSpace=wrap;html=1;verticalAlign=middle;fontFamily=Times New Roman;fontSize=20;" vertex="1" parent="1">
          <mxGeometry x="1504" y="661" width="230" height="80" as="geometry" />
        </mxCell>
        <mxCell id="U_p9BBrsp2ADE4LVN-Fy-4" value="payment process" style="ellipse;whiteSpace=wrap;html=1;verticalAlign=middle;fontFamily=Times New Roman;fontSize=20;" vertex="1" parent="1">
          <mxGeometry x="1504" y="827" width="230" height="80" as="geometry" />
        </mxCell>
        <mxCell id="U_p9BBrsp2ADE4LVN-Fy-5" value="payment process" style="ellipse;whiteSpace=wrap;html=1;verticalAlign=middle;fontFamily=Times New Roman;fontSize=20;" vertex="1" parent="1">
          <mxGeometry x="1152" y="904" width="230" height="80" as="geometry" />
        </mxCell>
        <mxCell id="U_p9BBrsp2ADE4LVN-Fy-6" value="Use" style="endArrow=open;endSize=12;dashed=1;html=1;rounded=0;exitX=0;exitY=0.5;exitDx=0;exitDy=0;entryX=0.5;entryY=0;entryDx=0;entryDy=0;" edge="1" parent="1" source="U_p9BBrsp2ADE4LVN-Fy-4" target="U_p9BBrsp2ADE4LVN-Fy-5">
          <mxGeometry width="160" relative="1" as="geometry">
            <mxPoint x="1160" y="762" as="sourcePoint" />
            <mxPoint x="1320" y="762" as="targetPoint" />
          </mxGeometry>
        </mxCell>
        <mxCell id="U_p9BBrsp2ADE4LVN-Fy-7" value="Use" style="endArrow=open;endSize=12;dashed=1;html=1;rounded=0;exitX=0.5;exitY=1;exitDx=0;exitDy=0;" edge="1" parent="1" source="U_p9BBrsp2ADE4LVN-Fy-3" target="U_p9BBrsp2ADE4LVN-Fy-4">
          <mxGeometry width="160" relative="1" as="geometry">
            <mxPoint x="1432" y="775" as="sourcePoint" />
            <mxPoint x="1592" y="775" as="targetPoint" />
          </mxGeometry>
        </mxCell>
        <mxCell id="U_p9BBrsp2ADE4LVN-Fy-8" value="Use" style="endArrow=open;endSize=12;dashed=1;html=1;rounded=0;exitX=1;exitY=0.5;exitDx=0;exitDy=0;entryX=0.5;entryY=0;entryDx=0;entryDy=0;" edge="1" parent="1" source="U_p9BBrsp2ADE4LVN-Fy-2" target="U_p9BBrsp2ADE4LVN-Fy-3">
          <mxGeometry width="160" relative="1" as="geometry">
            <mxPoint x="1465" y="564" as="sourcePoint" />
            <mxPoint x="1625" y="564" as="targetPoint" />
          </mxGeometry>
        </mxCell>
        <mxCell id="qnbq_Sm4OkT6dX5q0z1y-2" value="inventory management" style="ellipse;whiteSpace=wrap;html=1;verticalAlign=middle;fontFamily=Times New Roman;fontSize=20;" vertex="1" parent="1">
          <mxGeometry x="339" y="1450" width="284" height="114" as="geometry" />
        </mxCell>
        <mxCell id="qnbq_Sm4OkT6dX5q0z1y-3" value="get inventories" style="ellipse;whiteSpace=wrap;html=1;verticalAlign=middle;fontFamily=Times New Roman;fontSize=20;" vertex="1" parent="1">
          <mxGeometry x="714" y="1383" width="217" height="80" as="geometry" />
        </mxCell>
        <mxCell id="qnbq_Sm4OkT6dX5q0z1y-4" value="create inventory" style="ellipse;whiteSpace=wrap;html=1;verticalAlign=middle;fontFamily=Times New Roman;fontSize=20;" vertex="1" parent="1">
          <mxGeometry x="714" y="1277" width="217" height="80" as="geometry" />
        </mxCell>
        <mxCell id="qnbq_Sm4OkT6dX5q0z1y-5" value="delete inventory" style="ellipse;whiteSpace=wrap;html=1;verticalAlign=middle;fontFamily=Times New Roman;fontSize=20;" vertex="1" parent="1">
          <mxGeometry x="714" y="1606" width="217" height="80" as="geometry" />
        </mxCell>
        <mxCell id="qnbq_Sm4OkT6dX5q0z1y-6" value="update inventory" style="ellipse;whiteSpace=wrap;html=1;verticalAlign=middle;fontFamily=Times New Roman;fontSize=20;" vertex="1" parent="1">
          <mxGeometry x="714" y="1495" width="217" height="80" as="geometry" />
        </mxCell>
        <mxCell id="qnbq_Sm4OkT6dX5q0z1y-7" value="Use" style="endArrow=open;endSize=12;dashed=1;html=1;rounded=0;entryX=-0.002;entryY=0.615;entryDx=0;entryDy=0;entryPerimeter=0;" edge="1" parent="1" source="qnbq_Sm4OkT6dX5q0z1y-2" target="qnbq_Sm4OkT6dX5q0z1y-4">
          <mxGeometry width="160" relative="1" as="geometry">
            <mxPoint x="501" y="1339" as="sourcePoint" />
            <mxPoint x="661" y="1339" as="targetPoint" />
          </mxGeometry>
        </mxCell>
        <mxCell id="qnbq_Sm4OkT6dX5q0z1y-8" value="Use" style="endArrow=open;endSize=12;dashed=1;html=1;rounded=0;exitX=1;exitY=0;exitDx=0;exitDy=0;entryX=0;entryY=0.5;entryDx=0;entryDy=0;" edge="1" parent="1" source="qnbq_Sm4OkT6dX5q0z1y-2" target="qnbq_Sm4OkT6dX5q0z1y-3">
          <mxGeometry width="160" relative="1" as="geometry">
            <mxPoint x="406" y="1391" as="sourcePoint" />
            <mxPoint x="566" y="1391" as="targetPoint" />
          </mxGeometry>
        </mxCell>
        <mxCell id="qnbq_Sm4OkT6dX5q0z1y-9" value="Use" style="endArrow=open;endSize=12;dashed=1;html=1;rounded=0;exitX=0.665;exitY=0.98;exitDx=0;exitDy=0;exitPerimeter=0;entryX=0;entryY=0.5;entryDx=0;entryDy=0;" edge="1" parent="1" source="qnbq_Sm4OkT6dX5q0z1y-2" target="qnbq_Sm4OkT6dX5q0z1y-5">
          <mxGeometry width="160" relative="1" as="geometry">
            <mxPoint x="554" y="1665" as="sourcePoint" />
            <mxPoint x="714" y="1665" as="targetPoint" />
          </mxGeometry>
        </mxCell>
        <mxCell id="qnbq_Sm4OkT6dX5q0z1y-10" value="Use" style="endArrow=open;endSize=12;dashed=1;html=1;rounded=0;exitX=1;exitY=1;exitDx=0;exitDy=0;entryX=0;entryY=0.5;entryDx=0;entryDy=0;" edge="1" parent="1" source="qnbq_Sm4OkT6dX5q0z1y-2" target="qnbq_Sm4OkT6dX5q0z1y-6">
          <mxGeometry width="160" relative="1" as="geometry">
            <mxPoint x="518" y="1614" as="sourcePoint" />
            <mxPoint x="678" y="1614" as="targetPoint" />
          </mxGeometry>
        </mxCell>
        <mxCell id="qnbq_Sm4OkT6dX5q0z1y-11" value="" style="html=1;verticalAlign=bottom;endArrow=block;curved=0;rounded=0;entryX=0.013;entryY=0.588;entryDx=0;entryDy=0;entryPerimeter=0;" edge="1" parent="1" source="7U8GxZ7w3WnnialaEuKp-2" target="qnbq_Sm4OkT6dX5q0z1y-2">
          <mxGeometry width="80" relative="1" as="geometry">
            <mxPoint x="132" y="1166" as="sourcePoint" />
            <mxPoint x="323" y="1497" as="targetPoint" />
          </mxGeometry>
        </mxCell>
        <mxCell id="ahMbHVwMtVgxI98I1rvw-2" value="&lt;font style=&quot;font-size: 20px;&quot; face=&quot;Times New Roman&quot;&gt;create rating for product&lt;/font&gt;" style="ellipse;whiteSpace=wrap;html=1;verticalAlign=middle;align=center;" vertex="1" parent="1">
          <mxGeometry x="512.5" y="-133" width="222" height="87" as="geometry" />
        </mxCell>
        <mxCell id="ahMbHVwMtVgxI98I1rvw-3" value="" style="html=1;verticalAlign=bottom;endArrow=block;curved=0;rounded=0;entryX=0;entryY=0.5;entryDx=0;entryDy=0;" edge="1" parent="1" source="7U8GxZ7w3WnnialaEuKp-1" target="ahMbHVwMtVgxI98I1rvw-2">
          <mxGeometry width="80" relative="1" as="geometry">
            <mxPoint x="183" y="320" as="sourcePoint" />
            <mxPoint x="476" y="-102" as="targetPoint" />
          </mxGeometry>
        </mxCell>
        <mxCell id="LF7XUJ2vvmqRaG5uDoWT-1" value="log in into the system" style="ellipse;whiteSpace=wrap;html=1;verticalAlign=middle;fontSize=20;fontFamily=Times New Roman;" vertex="1" parent="1">
          <mxGeometry x="279" y="687" width="213" height="80" as="geometry" />
        </mxCell>
        <mxCell id="LF7XUJ2vvmqRaG5uDoWT-2" value="log out of the system" style="ellipse;whiteSpace=wrap;html=1;verticalAlign=middle;fontSize=20;fontFamily=Times New Roman;" vertex="1" parent="1">
          <mxGeometry x="290" y="823" width="212" height="80" as="geometry" />
        </mxCell>
        <mxCell id="FhNEA5ApA5Iu3t-xU8SO-3" value="" style="html=1;verticalAlign=bottom;endArrow=block;curved=0;rounded=0;" edge="1" parent="1" source="7U8GxZ7w3WnnialaEuKp-2" target="LF7XUJ2vvmqRaG5uDoWT-1">
          <mxGeometry width="80" relative="1" as="geometry">
            <mxPoint x="12" y="801" as="sourcePoint" />
            <mxPoint x="220" y="671" as="targetPoint" />
          </mxGeometry>
        </mxCell>
        <mxCell id="FhNEA5ApA5Iu3t-xU8SO-4" value="" style="html=1;verticalAlign=bottom;endArrow=block;curved=0;rounded=0;" edge="1" parent="1" source="7U8GxZ7w3WnnialaEuKp-1" target="LF7XUJ2vvmqRaG5uDoWT-2">
          <mxGeometry width="80" relative="1" as="geometry">
            <mxPoint x="12" y="652" as="sourcePoint" />
            <mxPoint x="221" y="783" as="targetPoint" />
          </mxGeometry>
        </mxCell>
        <mxCell id="FhNEA5ApA5Iu3t-xU8SO-5" value="" style="html=1;verticalAlign=bottom;endArrow=block;curved=0;rounded=0;entryX=0;entryY=0.5;entryDx=0;entryDy=0;" edge="1" parent="1" source="7U8GxZ7w3WnnialaEuKp-2" target="LF7XUJ2vvmqRaG5uDoWT-2">
          <mxGeometry width="80" relative="1" as="geometry">
            <mxPoint x="110" y="864" as="sourcePoint" />
            <mxPoint x="318" y="734" as="targetPoint" />
          </mxGeometry>
        </mxCell>
        <mxCell id="FhNEA5ApA5Iu3t-xU8SO-6" value="" style="html=1;verticalAlign=bottom;endArrow=block;curved=0;rounded=0;entryX=0;entryY=0.5;entryDx=0;entryDy=0;" edge="1" parent="1" source="7U8GxZ7w3WnnialaEuKp-1" target="LF7XUJ2vvmqRaG5uDoWT-1">
          <mxGeometry width="80" relative="1" as="geometry">
            <mxPoint x="143" y="1036" as="sourcePoint" />
            <mxPoint x="352" y="931" as="targetPoint" />
          </mxGeometry>
        </mxCell>
      </root>
    </mxGraphModel>
  </diagram>
  <diagram name="Product Catalog" id="QtrBjzzgntMYrUrY8F5b">
    <mxGraphModel grid="0" page="0" gridSize="10" guides="1" tooltips="1" connect="1" arrows="1" fold="1" pageScale="1" pageWidth="827" pageHeight="1169" background="none" math="0" shadow="0" adaptiveColors="none">
      <root>
        <mxCell id="0" />
        <mxCell id="1" parent="0" />
        <mxCell id="nFxAsMUBCsd20rdgT4F4-1" value="" style="html=1;whiteSpace=wrap;" vertex="1" parent="1">
          <mxGeometry x="236" y="75" width="697" height="840" as="geometry" />
        </mxCell>
        <mxCell id="e0jzk2XPCgwl38-6LGWL-2" value="" style="edgeStyle=orthogonalEdgeStyle;rounded=0;orthogonalLoop=1;jettySize=auto;html=1;" edge="1" parent="1" source="q-8JtvvI-BBRz6XhBGx6-1" target="e0jzk2XPCgwl38-6LGWL-1">
          <mxGeometry relative="1" as="geometry" />
        </mxCell>
        <mxCell id="q-8JtvvI-BBRz6XhBGx6-1" value="Buyer" style="shape=umlActor;verticalLabelPosition=bottom;verticalAlign=top;html=1;" vertex="1" parent="1">
          <mxGeometry x="140" y="162" width="30" height="60" as="geometry" />
        </mxCell>
        <mxCell id="q-8JtvvI-BBRz6XhBGx6-2" value="SysAdmin" style="shape=umlActor;verticalLabelPosition=bottom;verticalAlign=top;html=1;" vertex="1" parent="1">
          <mxGeometry x="140" y="569" width="30" height="60" as="geometry" />
        </mxCell>
        <mxCell id="e0jzk2XPCgwl38-6LGWL-1" value="&lt;div&gt;get products by filtering and sorting&lt;/div&gt;&lt;div&gt;on price and name&lt;/div&gt;" style="ellipse;whiteSpace=wrap;html=1;verticalAlign=middle;fontFamily=Times New Roman;fontSize=20;" vertex="1" parent="1">
          <mxGeometry x="304" y="146.5" width="275" height="91" as="geometry" />
        </mxCell>
        <mxCell id="e0jzk2XPCgwl38-6LGWL-3" value="get the detail of specific product" style="ellipse;whiteSpace=wrap;html=1;verticalAlign=middle;fontFamily=Times New Roman;fontSize=20;" vertex="1" parent="1">
          <mxGeometry x="307" y="284" width="272" height="82" as="geometry" />
        </mxCell>
        <mxCell id="e0jzk2XPCgwl38-6LGWL-4" value="product management" style="ellipse;whiteSpace=wrap;html=1;verticalAlign=middle;fontFamily=Times New Roman;fontSize=20;" vertex="1" parent="1">
          <mxGeometry x="286" y="551.5" width="275" height="95" as="geometry" />
        </mxCell>
        <mxCell id="e0jzk2XPCgwl38-6LGWL-5" value="update product" style="ellipse;whiteSpace=wrap;html=1;verticalAlign=middle;fontFamily=Times New Roman;fontSize=20;" vertex="1" parent="1">
          <mxGeometry x="644" y="557" width="229" height="80" as="geometry" />
        </mxCell>
        <mxCell id="e0jzk2XPCgwl38-6LGWL-6" value="get products" style="ellipse;whiteSpace=wrap;html=1;verticalAlign=middle;fontFamily=Times New Roman;fontSize=20;" vertex="1" parent="1">
          <mxGeometry x="640" y="443" width="229" height="80" as="geometry" />
        </mxCell>
        <mxCell id="e0jzk2XPCgwl38-6LGWL-7" value="create product" style="ellipse;whiteSpace=wrap;html=1;verticalAlign=middle;fontFamily=Times New Roman;fontSize=20;" vertex="1" parent="1">
          <mxGeometry x="634" y="329" width="229" height="80" as="geometry" />
        </mxCell>
        <mxCell id="e0jzk2XPCgwl38-6LGWL-8" value="delete product" style="ellipse;whiteSpace=wrap;html=1;verticalAlign=middle;fontFamily=Times New Roman;fontSize=20;" vertex="1" parent="1">
          <mxGeometry x="640" y="671" width="229" height="80" as="geometry" />
        </mxCell>
        <mxCell id="e0jzk2XPCgwl38-6LGWL-9" value="update product with inventory" style="ellipse;whiteSpace=wrap;html=1;verticalAlign=middle;fontFamily=Times New Roman;fontSize=20;" vertex="1" parent="1">
          <mxGeometry x="640" y="785" width="229" height="80" as="geometry" />
        </mxCell>
        <mxCell id="e0jzk2XPCgwl38-6LGWL-10" value="" style="edgeStyle=orthogonalEdgeStyle;rounded=0;orthogonalLoop=1;jettySize=auto;html=1;entryX=0;entryY=0.5;entryDx=0;entryDy=0;" edge="1" parent="1" source="q-8JtvvI-BBRz6XhBGx6-2" target="e0jzk2XPCgwl38-6LGWL-4">
          <mxGeometry relative="1" as="geometry">
            <mxPoint x="228" y="206" as="sourcePoint" />
            <mxPoint x="283" y="206" as="targetPoint" />
          </mxGeometry>
        </mxCell>
        <mxCell id="e0jzk2XPCgwl38-6LGWL-12" value="" style="html=1;verticalAlign=bottom;endArrow=block;curved=0;rounded=0;entryX=0;entryY=0.5;entryDx=0;entryDy=0;" edge="1" parent="1" source="q-8JtvvI-BBRz6XhBGx6-1" target="e0jzk2XPCgwl38-6LGWL-3">
          <mxGeometry width="80" relative="1" as="geometry">
            <mxPoint x="465" y="393" as="sourcePoint" />
            <mxPoint x="545" y="393" as="targetPoint" />
          </mxGeometry>
        </mxCell>
        <mxCell id="e0jzk2XPCgwl38-6LGWL-13" value="Use" style="endArrow=open;endSize=12;dashed=1;html=1;rounded=0;entryX=0;entryY=0.5;entryDx=0;entryDy=0;exitX=1;exitY=0.5;exitDx=0;exitDy=0;" edge="1" parent="1" source="e0jzk2XPCgwl38-6LGWL-4" target="e0jzk2XPCgwl38-6LGWL-7">
          <mxGeometry width="160" relative="1" as="geometry">
            <mxPoint x="425" y="593" as="sourcePoint" />
            <mxPoint x="585" y="593" as="targetPoint" />
          </mxGeometry>
        </mxCell>
        <mxCell id="e0jzk2XPCgwl38-6LGWL-14" value="Use" style="endArrow=open;endSize=12;dashed=1;html=1;rounded=0;exitX=1;exitY=0.5;exitDx=0;exitDy=0;entryX=0;entryY=0.5;entryDx=0;entryDy=0;" edge="1" parent="1" source="e0jzk2XPCgwl38-6LGWL-4" target="e0jzk2XPCgwl38-6LGWL-6">
          <mxGeometry width="160" relative="1" as="geometry">
            <mxPoint x="381" y="710.5" as="sourcePoint" />
            <mxPoint x="541" y="710.5" as="targetPoint" />
          </mxGeometry>
        </mxCell>
        <mxCell id="e0jzk2XPCgwl38-6LGWL-15" value="Use" style="endArrow=open;endSize=12;dashed=1;html=1;rounded=0;exitX=1;exitY=0.5;exitDx=0;exitDy=0;entryX=0;entryY=0.5;entryDx=0;entryDy=0;" edge="1" parent="1" source="e0jzk2XPCgwl38-6LGWL-4" target="e0jzk2XPCgwl38-6LGWL-9">
          <mxGeometry width="160" relative="1" as="geometry">
            <mxPoint x="380" y="819" as="sourcePoint" />
            <mxPoint x="540" y="819" as="targetPoint" />
          </mxGeometry>
        </mxCell>
        <mxCell id="e0jzk2XPCgwl38-6LGWL-16" value="Use" style="endArrow=open;endSize=12;dashed=1;html=1;rounded=0;exitX=1;exitY=0.5;exitDx=0;exitDy=0;entryX=0.004;entryY=0.605;entryDx=0;entryDy=0;entryPerimeter=0;" edge="1" parent="1" source="e0jzk2XPCgwl38-6LGWL-4" target="e0jzk2XPCgwl38-6LGWL-8">
          <mxGeometry width="160" relative="1" as="geometry">
            <mxPoint x="443" y="794" as="sourcePoint" />
            <mxPoint x="603" y="794" as="targetPoint" />
          </mxGeometry>
        </mxCell>
        <mxCell id="e0jzk2XPCgwl38-6LGWL-17" value="Use" style="endArrow=open;endSize=12;dashed=1;html=1;rounded=0;exitX=1;exitY=0.5;exitDx=0;exitDy=0;entryX=0;entryY=0.5;entryDx=0;entryDy=0;" edge="1" parent="1" source="e0jzk2XPCgwl38-6LGWL-4" target="e0jzk2XPCgwl38-6LGWL-5">
          <mxGeometry width="160" relative="1" as="geometry">
            <mxPoint x="487" y="782" as="sourcePoint" />
            <mxPoint x="647" y="782" as="targetPoint" />
          </mxGeometry>
        </mxCell>
      </root>
    </mxGraphModel>
  </diagram>
  <diagram name="Shopping Cart" id="K96fDZ9d5dqOhDoHccWv">
    <mxGraphModel grid="0" page="0" gridSize="10" guides="1" tooltips="1" connect="1" arrows="1" fold="1" pageScale="1" pageWidth="827" pageHeight="1169" math="0" shadow="0">
      <root>
        <mxCell id="0" />
        <mxCell id="1" parent="0" />
        <mxCell id="4cCbzs0raWdXqFoN6qHf-1" value="" style="html=1;whiteSpace=wrap;" vertex="1" parent="1">
          <mxGeometry x="244" y="-143" width="653" height="890" as="geometry" />
        </mxCell>
        <mxCell id="p8QDrvKC6ET-ttXdMmQZ-1" value="Buyer" style="shape=umlActor;verticalLabelPosition=bottom;verticalAlign=top;html=1;" vertex="1" parent="1">
          <mxGeometry x="161" y="116" width="30" height="60" as="geometry" />
        </mxCell>
        <mxCell id="rvIE4NjH5PXaeBie2vq4-2" value="" style="edgeStyle=orthogonalEdgeStyle;rounded=0;orthogonalLoop=1;jettySize=auto;html=1;" edge="1" parent="1" source="p8QDrvKC6ET-ttXdMmQZ-2" target="rvIE4NjH5PXaeBie2vq4-1">
          <mxGeometry relative="1" as="geometry" />
        </mxCell>
        <mxCell id="p8QDrvKC6ET-ttXdMmQZ-2" value="SysAdmin" style="shape=umlActor;verticalLabelPosition=bottom;verticalAlign=top;html=1;" vertex="1" parent="1">
          <mxGeometry x="164" y="520" width="30" height="60" as="geometry" />
        </mxCell>
        <mxCell id="rvIE4NjH5PXaeBie2vq4-1" value="get shopping cart of buyers" style="ellipse;whiteSpace=wrap;html=1;verticalAlign=middle;fontFamily=Times New Roman;fontSize=20;" vertex="1" parent="1">
          <mxGeometry x="350" y="510" width="215" height="80" as="geometry" />
        </mxCell>
        <mxCell id="rvIE4NjH5PXaeBie2vq4-6" value="&lt;div&gt;update enabled/disabled&lt;/div&gt;&lt;div&gt;shopping cart of buyer&lt;/div&gt;" style="ellipse;whiteSpace=wrap;html=1;verticalAlign=middle;fontFamily=Times New Roman;fontSize=20;" vertex="1" parent="1">
          <mxGeometry x="348" y="646" width="215" height="80" as="geometry" />
        </mxCell>
        <mxCell id="rvIE4NjH5PXaeBie2vq4-7" value="get shopping cart with products" style="ellipse;whiteSpace=wrap;html=1;verticalAlign=middle;fontFamily=Times New Roman;fontSize=20;" vertex="1" parent="1">
          <mxGeometry x="338" y="-9" width="215" height="80" as="geometry" />
        </mxCell>
        <mxCell id="rvIE4NjH5PXaeBie2vq4-8" value="check out the shopping cart" style="ellipse;whiteSpace=wrap;html=1;verticalAlign=middle;fontFamily=Times New Roman;fontSize=20;" vertex="1" parent="1">
          <mxGeometry x="343" y="369" width="215" height="80" as="geometry" />
        </mxCell>
        <mxCell id="rvIE4NjH5PXaeBie2vq4-9" value="&lt;div&gt;update the amount of product&lt;/div&gt;&lt;div&gt;in the shopping cart&lt;/div&gt;" style="ellipse;whiteSpace=wrap;html=1;verticalAlign=middle;fontFamily=Times New Roman;fontSize=20;" vertex="1" parent="1">
          <mxGeometry x="328" y="112" width="235" height="84" as="geometry" />
        </mxCell>
        <mxCell id="rvIE4NjH5PXaeBie2vq4-10" value="delete product in the shopping cart" style="ellipse;whiteSpace=wrap;html=1;verticalAlign=middle;fontFamily=Times New Roman;fontSize=20;" vertex="1" parent="1">
          <mxGeometry x="343" y="238" width="215" height="80" as="geometry" />
        </mxCell>
        <mxCell id="rvIE4NjH5PXaeBie2vq4-11" value="create the shopping cart with product" style="ellipse;whiteSpace=wrap;html=1;verticalAlign=middle;fontFamily=Times New Roman;fontSize=20;" vertex="1" parent="1">
          <mxGeometry x="336" y="-124" width="215" height="80" as="geometry" />
        </mxCell>
        <mxCell id="rvIE4NjH5PXaeBie2vq4-12" value="update product with inventory" style="ellipse;whiteSpace=wrap;html=1;verticalAlign=middle;fontFamily=Times New Roman;fontSize=20;" vertex="1" parent="1">
          <mxGeometry x="656" y="369" width="215" height="80" as="geometry" />
        </mxCell>
        <mxCell id="rvIE4NjH5PXaeBie2vq4-13" value="" style="html=1;verticalAlign=bottom;endArrow=block;curved=0;rounded=0;entryX=0;entryY=0.5;entryDx=0;entryDy=0;" edge="1" parent="1" source="p8QDrvKC6ET-ttXdMmQZ-1" target="rvIE4NjH5PXaeBie2vq4-11">
          <mxGeometry width="80" relative="1" as="geometry">
            <mxPoint x="397" y="98" as="sourcePoint" />
            <mxPoint x="477" y="98" as="targetPoint" />
          </mxGeometry>
        </mxCell>
        <mxCell id="rvIE4NjH5PXaeBie2vq4-14" value="" style="html=1;verticalAlign=bottom;endArrow=block;curved=0;rounded=0;entryX=0;entryY=0.5;entryDx=0;entryDy=0;" edge="1" parent="1" source="p8QDrvKC6ET-ttXdMmQZ-1" target="rvIE4NjH5PXaeBie2vq4-7">
          <mxGeometry width="80" relative="1" as="geometry">
            <mxPoint x="323" y="251" as="sourcePoint" />
            <mxPoint x="468" y="43" as="targetPoint" />
          </mxGeometry>
        </mxCell>
        <mxCell id="rvIE4NjH5PXaeBie2vq4-15" value="" style="html=1;verticalAlign=bottom;endArrow=block;curved=0;rounded=0;entryX=0;entryY=0.5;entryDx=0;entryDy=0;" edge="1" parent="1" source="p8QDrvKC6ET-ttXdMmQZ-1" target="rvIE4NjH5PXaeBie2vq4-9">
          <mxGeometry width="80" relative="1" as="geometry">
            <mxPoint x="247" y="333" as="sourcePoint" />
            <mxPoint x="392" y="125" as="targetPoint" />
          </mxGeometry>
        </mxCell>
        <mxCell id="rvIE4NjH5PXaeBie2vq4-16" value="" style="html=1;verticalAlign=bottom;endArrow=block;curved=0;rounded=0;entryX=0;entryY=0.5;entryDx=0;entryDy=0;" edge="1" parent="1" source="p8QDrvKC6ET-ttXdMmQZ-1" target="rvIE4NjH5PXaeBie2vq4-10">
          <mxGeometry width="80" relative="1" as="geometry">
            <mxPoint x="315" y="380" as="sourcePoint" />
            <mxPoint x="460" y="172" as="targetPoint" />
          </mxGeometry>
        </mxCell>
        <mxCell id="rvIE4NjH5PXaeBie2vq4-17" value="" style="html=1;verticalAlign=bottom;endArrow=block;curved=0;rounded=0;entryX=0;entryY=0.5;entryDx=0;entryDy=0;" edge="1" parent="1" source="p8QDrvKC6ET-ttXdMmQZ-1" target="rvIE4NjH5PXaeBie2vq4-8">
          <mxGeometry width="80" relative="1" as="geometry">
            <mxPoint x="336" y="415" as="sourcePoint" />
            <mxPoint x="481" y="207" as="targetPoint" />
          </mxGeometry>
        </mxCell>
        <mxCell id="rvIE4NjH5PXaeBie2vq4-18" value="" style="html=1;verticalAlign=bottom;endArrow=block;curved=0;rounded=0;entryX=0;entryY=0.5;entryDx=0;entryDy=0;" edge="1" parent="1" source="p8QDrvKC6ET-ttXdMmQZ-2" target="rvIE4NjH5PXaeBie2vq4-6">
          <mxGeometry width="80" relative="1" as="geometry">
            <mxPoint x="305" y="822" as="sourcePoint" />
            <mxPoint x="450" y="614" as="targetPoint" />
          </mxGeometry>
        </mxCell>
        <mxCell id="rvIE4NjH5PXaeBie2vq4-19" value="Use" style="endArrow=open;endSize=12;dashed=1;html=1;rounded=0;exitX=1;exitY=0.5;exitDx=0;exitDy=0;entryX=0;entryY=0.5;entryDx=0;entryDy=0;" edge="1" parent="1" source="rvIE4NjH5PXaeBie2vq4-8" target="rvIE4NjH5PXaeBie2vq4-12">
          <mxGeometry width="160" relative="1" as="geometry">
            <mxPoint x="357" y="413" as="sourcePoint" />
            <mxPoint x="517" y="413" as="targetPoint" />
          </mxGeometry>
        </mxCell>
      </root>
    </mxGraphModel>
  </diagram>
  <diagram name="Payment Process" id="Lpf9HPfsE6jhCo3ymJV8">
    <mxGraphModel grid="0" page="0" gridSize="10" guides="1" tooltips="1" connect="1" arrows="1" fold="1" pageScale="1" pageWidth="827" pageHeight="1169" math="0" shadow="0">
      <root>
        <mxCell id="0" />
        <mxCell id="1" parent="0" />
        <mxCell id="LpUWwRBUxTQwdDiIzJWS-1" value="" style="html=1;whiteSpace=wrap;" vertex="1" parent="1">
          <mxGeometry x="285" y="203" width="646" height="538" as="geometry" />
        </mxCell>
        <mxCell id="F25QNn8nqDS_iqM_b9A6-2" value="" style="edgeStyle=orthogonalEdgeStyle;rounded=0;orthogonalLoop=1;jettySize=auto;html=1;" edge="1" parent="1" source="FnevsFmGaG3bEu7kQ4CZ-2" target="F25QNn8nqDS_iqM_b9A6-1">
          <mxGeometry relative="1" as="geometry" />
        </mxCell>
        <mxCell id="FnevsFmGaG3bEu7kQ4CZ-2" value="System" style="shape=umlActor;verticalLabelPosition=bottom;verticalAlign=top;html=1;" vertex="1" parent="1">
          <mxGeometry x="185" y="285" width="30" height="60" as="geometry" />
        </mxCell>
        <mxCell id="F25QNn8nqDS_iqM_b9A6-1" value="payment process" style="ellipse;whiteSpace=wrap;html=1;verticalAlign=middle;fontFamily=Times New Roman;fontSize=20;" vertex="1" parent="1">
          <mxGeometry x="310" y="275" width="230" height="80" as="geometry" />
        </mxCell>
        <mxCell id="F25QNn8nqDS_iqM_b9A6-3" value="payment process" style="ellipse;whiteSpace=wrap;html=1;verticalAlign=middle;fontFamily=Times New Roman;fontSize=20;" vertex="1" parent="1">
          <mxGeometry x="677" y="368" width="230" height="80" as="geometry" />
        </mxCell>
        <mxCell id="F25QNn8nqDS_iqM_b9A6-4" value="payment process" style="ellipse;whiteSpace=wrap;html=1;verticalAlign=middle;fontFamily=Times New Roman;fontSize=20;" vertex="1" parent="1">
          <mxGeometry x="677" y="534" width="230" height="80" as="geometry" />
        </mxCell>
        <mxCell id="F25QNn8nqDS_iqM_b9A6-5" value="payment process" style="ellipse;whiteSpace=wrap;html=1;verticalAlign=middle;fontFamily=Times New Roman;fontSize=20;" vertex="1" parent="1">
          <mxGeometry x="325" y="611" width="230" height="80" as="geometry" />
        </mxCell>
        <mxCell id="F25QNn8nqDS_iqM_b9A6-6" value="Use" style="endArrow=open;endSize=12;dashed=1;html=1;rounded=0;exitX=0;exitY=0.5;exitDx=0;exitDy=0;entryX=0.5;entryY=0;entryDx=0;entryDy=0;" edge="1" parent="1" source="F25QNn8nqDS_iqM_b9A6-4" target="F25QNn8nqDS_iqM_b9A6-5">
          <mxGeometry width="160" relative="1" as="geometry">
            <mxPoint x="333" y="469" as="sourcePoint" />
            <mxPoint x="493" y="469" as="targetPoint" />
          </mxGeometry>
        </mxCell>
        <mxCell id="F25QNn8nqDS_iqM_b9A6-7" value="Use" style="endArrow=open;endSize=12;dashed=1;html=1;rounded=0;exitX=0.5;exitY=1;exitDx=0;exitDy=0;" edge="1" parent="1" source="F25QNn8nqDS_iqM_b9A6-3" target="F25QNn8nqDS_iqM_b9A6-4">
          <mxGeometry width="160" relative="1" as="geometry">
            <mxPoint x="605" y="482" as="sourcePoint" />
            <mxPoint x="765" y="482" as="targetPoint" />
          </mxGeometry>
        </mxCell>
        <mxCell id="F25QNn8nqDS_iqM_b9A6-8" value="Use" style="endArrow=open;endSize=12;dashed=1;html=1;rounded=0;exitX=1;exitY=0.5;exitDx=0;exitDy=0;entryX=0.5;entryY=0;entryDx=0;entryDy=0;" edge="1" parent="1" source="F25QNn8nqDS_iqM_b9A6-1" target="F25QNn8nqDS_iqM_b9A6-3">
          <mxGeometry width="160" relative="1" as="geometry">
            <mxPoint x="638" y="271" as="sourcePoint" />
            <mxPoint x="798" y="271" as="targetPoint" />
          </mxGeometry>
        </mxCell>
      </root>
    </mxGraphModel>
  </diagram>
  <diagram name="Inventory" id="ZYmHCsi0yiDKmK_dmWN8">
    <mxGraphModel grid="0" page="0" gridSize="10" guides="1" tooltips="1" connect="1" arrows="1" fold="1" pageScale="1" pageWidth="827" pageHeight="1169" math="0" shadow="0">
      <root>
        <mxCell id="0" />
        <mxCell id="1" parent="0" />
        <mxCell id="2w84h92zA263ZtSTpKOT-1" value="" style="html=1;whiteSpace=wrap;" vertex="1" parent="1">
          <mxGeometry x="264" y="316" width="646" height="573" as="geometry" />
        </mxCell>
        <mxCell id="q7lQYrlj5mLm8yQCrjhs-2" value="" style="edgeStyle=orthogonalEdgeStyle;rounded=0;orthogonalLoop=1;jettySize=auto;html=1;" edge="1" parent="1" source="0Bcl3URu984JgBxRbXi2-2" target="q7lQYrlj5mLm8yQCrjhs-1">
          <mxGeometry relative="1" as="geometry" />
        </mxCell>
        <mxCell id="0Bcl3URu984JgBxRbXi2-2" value="SysAdmin" style="shape=umlActor;verticalLabelPosition=bottom;verticalAlign=top;html=1;" vertex="1" parent="1">
          <mxGeometry x="185" y="575" width="30" height="60" as="geometry" />
        </mxCell>
        <mxCell id="q7lQYrlj5mLm8yQCrjhs-1" value="inventory management" style="ellipse;whiteSpace=wrap;html=1;verticalAlign=middle;fontFamily=Times New Roman;fontSize=20;" vertex="1" parent="1">
          <mxGeometry x="320" y="565" width="217" height="80" as="geometry" />
        </mxCell>
        <mxCell id="q7lQYrlj5mLm8yQCrjhs-3" value="get inventories" style="ellipse;whiteSpace=wrap;html=1;verticalAlign=middle;fontFamily=Times New Roman;fontSize=20;" vertex="1" parent="1">
          <mxGeometry x="631" y="491" width="217" height="80" as="geometry" />
        </mxCell>
        <mxCell id="q7lQYrlj5mLm8yQCrjhs-4" value="create inventory" style="ellipse;whiteSpace=wrap;html=1;verticalAlign=middle;fontFamily=Times New Roman;fontSize=20;" vertex="1" parent="1">
          <mxGeometry x="628" y="351" width="217" height="80" as="geometry" />
        </mxCell>
        <mxCell id="q7lQYrlj5mLm8yQCrjhs-6" value="delete inventory" style="ellipse;whiteSpace=wrap;html=1;verticalAlign=middle;fontFamily=Times New Roman;fontSize=20;" vertex="1" parent="1">
          <mxGeometry x="631" y="771" width="217" height="80" as="geometry" />
        </mxCell>
        <mxCell id="q7lQYrlj5mLm8yQCrjhs-7" value="update inventory" style="ellipse;whiteSpace=wrap;html=1;verticalAlign=middle;fontFamily=Times New Roman;fontSize=20;" vertex="1" parent="1">
          <mxGeometry x="631" y="631" width="217" height="80" as="geometry" />
        </mxCell>
        <mxCell id="q7lQYrlj5mLm8yQCrjhs-8" value="Use" style="endArrow=open;endSize=12;dashed=1;html=1;rounded=0;entryX=-0.002;entryY=0.615;entryDx=0;entryDy=0;entryPerimeter=0;" edge="1" parent="1" source="q7lQYrlj5mLm8yQCrjhs-1" target="q7lQYrlj5mLm8yQCrjhs-4">
          <mxGeometry width="160" relative="1" as="geometry">
            <mxPoint x="415" y="420" as="sourcePoint" />
            <mxPoint x="575" y="420" as="targetPoint" />
          </mxGeometry>
        </mxCell>
        <mxCell id="q7lQYrlj5mLm8yQCrjhs-9" value="Use" style="endArrow=open;endSize=12;dashed=1;html=1;rounded=0;exitX=1;exitY=0;exitDx=0;exitDy=0;entryX=0;entryY=0.5;entryDx=0;entryDy=0;" edge="1" parent="1" source="q7lQYrlj5mLm8yQCrjhs-1" target="q7lQYrlj5mLm8yQCrjhs-3">
          <mxGeometry width="160" relative="1" as="geometry">
            <mxPoint x="320" y="472" as="sourcePoint" />
            <mxPoint x="480" y="472" as="targetPoint" />
          </mxGeometry>
        </mxCell>
        <mxCell id="q7lQYrlj5mLm8yQCrjhs-14" value="Use" style="endArrow=open;endSize=12;dashed=1;html=1;rounded=0;exitX=0.665;exitY=0.98;exitDx=0;exitDy=0;exitPerimeter=0;entryX=0;entryY=0.5;entryDx=0;entryDy=0;" edge="1" parent="1" source="q7lQYrlj5mLm8yQCrjhs-1" target="q7lQYrlj5mLm8yQCrjhs-6">
          <mxGeometry width="160" relative="1" as="geometry">
            <mxPoint x="468" y="746" as="sourcePoint" />
            <mxPoint x="628" y="746" as="targetPoint" />
          </mxGeometry>
        </mxCell>
        <mxCell id="q7lQYrlj5mLm8yQCrjhs-15" value="Use" style="endArrow=open;endSize=12;dashed=1;html=1;rounded=0;exitX=1;exitY=1;exitDx=0;exitDy=0;entryX=0;entryY=0.5;entryDx=0;entryDy=0;" edge="1" parent="1" source="q7lQYrlj5mLm8yQCrjhs-1" target="q7lQYrlj5mLm8yQCrjhs-7">
          <mxGeometry width="160" relative="1" as="geometry">
            <mxPoint x="432" y="695" as="sourcePoint" />
            <mxPoint x="592" y="695" as="targetPoint" />
          </mxGeometry>
        </mxCell>
      </root>
    </mxGraphModel>
  </diagram>
  <diagram name="Rating" id="1q0ij-7CHal_J5FVpsOu">
    <mxGraphModel grid="0" page="0" gridSize="10" guides="1" tooltips="1" connect="1" arrows="1" fold="1" pageScale="1" pageWidth="827" pageHeight="1169" math="0" shadow="0">
      <root>
        <mxCell id="0" />
        <mxCell id="1" parent="0" />
        <mxCell id="UVFmm2YHJWQpAIpcYCTE-4" value="" style="html=1;whiteSpace=wrap;" vertex="1" parent="1">
          <mxGeometry x="360" y="327" width="468" height="216" as="geometry" />
        </mxCell>
        <mxCell id="UVFmm2YHJWQpAIpcYCTE-2" value="" style="edgeStyle=orthogonalEdgeStyle;rounded=0;orthogonalLoop=1;jettySize=auto;html=1;" edge="1" parent="1" source="MxluaT77pSfoOmud3Kn5-1" target="UVFmm2YHJWQpAIpcYCTE-1">
          <mxGeometry relative="1" as="geometry" />
        </mxCell>
        <mxCell id="MxluaT77pSfoOmud3Kn5-1" value="Buyer" style="shape=umlActor;verticalLabelPosition=bottom;verticalAlign=top;html=1;" vertex="1" parent="1">
          <mxGeometry x="287" y="408" width="30" height="60" as="geometry" />
        </mxCell>
        <mxCell id="UVFmm2YHJWQpAIpcYCTE-1" value="&lt;font style=&quot;font-size: 20px;&quot; face=&quot;Times New Roman&quot;&gt;create rating for product&lt;/font&gt;" style="ellipse;whiteSpace=wrap;html=1;verticalAlign=middle;align=center;" vertex="1" parent="1">
          <mxGeometry x="475" y="386.5" width="307" height="103" as="geometry" />
        </mxCell>
      </root>
    </mxGraphModel>
  </diagram>
  <diagram name="Access Control" id="tjYiRpu2nq7QGfDkN88H">
    <mxGraphModel grid="0" page="0" gridSize="10" guides="1" tooltips="1" connect="1" arrows="1" fold="1" pageScale="1" pageWidth="827" pageHeight="1169" math="0" shadow="0">
      <root>
        <mxCell id="0" />
        <mxCell id="1" parent="0" />
        <mxCell id="-bNtr9NXDYQMpR6VcGIt-1" value="" style="html=1;whiteSpace=wrap;" vertex="1" parent="1">
          <mxGeometry x="515" y="787" width="376" height="286" as="geometry" />
        </mxCell>
        <mxCell id="DgIjOYRuqDiKl1jP5b6I-2" value="" style="edgeStyle=orthogonalEdgeStyle;rounded=0;orthogonalLoop=1;jettySize=auto;html=1;" edge="1" parent="1" source="6DrRZZ09Gd6RWeHJSCyA-1" target="DgIjOYRuqDiKl1jP5b6I-1">
          <mxGeometry relative="1" as="geometry" />
        </mxCell>
        <mxCell id="6DrRZZ09Gd6RWeHJSCyA-1" value="Buyer" style="shape=umlActor;verticalLabelPosition=bottom;verticalAlign=top;html=1;" vertex="1" parent="1">
          <mxGeometry x="401" y="817" width="30" height="60" as="geometry" />
        </mxCell>
        <mxCell id="DgIjOYRuqDiKl1jP5b6I-4" value="" style="edgeStyle=orthogonalEdgeStyle;rounded=0;orthogonalLoop=1;jettySize=auto;html=1;" edge="1" parent="1" source="6DrRZZ09Gd6RWeHJSCyA-2" target="DgIjOYRuqDiKl1jP5b6I-3">
          <mxGeometry relative="1" as="geometry" />
        </mxCell>
        <mxCell id="6DrRZZ09Gd6RWeHJSCyA-2" value="SysAdmin" style="shape=umlActor;verticalLabelPosition=bottom;verticalAlign=top;html=1;" vertex="1" parent="1">
          <mxGeometry x="401" y="985" width="30" height="60" as="geometry" />
        </mxCell>
        <mxCell id="DgIjOYRuqDiKl1jP5b6I-1" value="log in into the system" style="ellipse;whiteSpace=wrap;html=1;verticalAlign=middle;fontSize=20;fontFamily=Times New Roman;" vertex="1" parent="1">
          <mxGeometry x="608" y="807" width="213" height="80" as="geometry" />
        </mxCell>
        <mxCell id="DgIjOYRuqDiKl1jP5b6I-3" value="log out of the system" style="ellipse;whiteSpace=wrap;html=1;verticalAlign=middle;fontSize=20;fontFamily=Times New Roman;" vertex="1" parent="1">
          <mxGeometry x="609" y="975" width="212" height="80" as="geometry" />
        </mxCell>
        <mxCell id="DgIjOYRuqDiKl1jP5b6I-9" value="" style="html=1;verticalAlign=bottom;endArrow=block;curved=0;rounded=0;entryX=0;entryY=1;entryDx=0;entryDy=0;exitX=1;exitY=0.3333333333333333;exitDx=0;exitDy=0;exitPerimeter=0;" edge="1" parent="1" source="6DrRZZ09Gd6RWeHJSCyA-2" target="DgIjOYRuqDiKl1jP5b6I-1">
          <mxGeometry width="80" relative="1" as="geometry">
            <mxPoint x="505" y="969" as="sourcePoint" />
            <mxPoint x="585" y="969" as="targetPoint" />
          </mxGeometry>
        </mxCell>
        <mxCell id="DgIjOYRuqDiKl1jP5b6I-10" value="" style="html=1;verticalAlign=bottom;endArrow=block;curved=0;rounded=0;entryX=0;entryY=0;entryDx=0;entryDy=0;" edge="1" parent="1" source="6DrRZZ09Gd6RWeHJSCyA-1" target="DgIjOYRuqDiKl1jP5b6I-3">
          <mxGeometry width="80" relative="1" as="geometry">
            <mxPoint x="484" y="921" as="sourcePoint" />
            <mxPoint x="564" y="921" as="targetPoint" />
          </mxGeometry>
        </mxCell>
      </root>
    </mxGraphModel>
  </diagram>
</mxfile>
